<svg width="816px" height="1056px" preserveAspectRatio="none" viewBox="0 0 816 1056" style="width: 100%; height: 100%; position: absolute; left: 0px; top: 0px;"><defs><clipPath id="clippath38" transform=""><path d="M 0 792 L 612 792 L 612 0 L 0 0 Z" fill="none" clip-rule="nonzero"/></clipPath><clipPath id="clippath39" transform=""><path d="M 47.364 96.353 L 297.443 96.353 L 297.443 586.913 L 47.364 586.913 Z" fill="none" clip-rule="nonzero"/></clipPath><clipPath id="clippath40" transform=""><path d="M 0 792 L 612 792 L 612 0 L 0 0 Z" fill="none" clip-rule="nonzero"/></clipPath><clipPath id="clippath41" transform=""><path d="M 0 792 L 612 792 L 612 0 L 0 0 Z" fill="none" clip-rule="nonzero"/></clipPath><clipPath id="clippath42" transform=""><path d="M 0 792 L 612 792 L 612 0 L 0 0 Z" fill="none" clip-rule="nonzero"/></clipPath><clipPath id="clippath43" transform=""><path d="M 463.808 665.901 L 508.648 656.271 L 511.305 668.641 L 466.464 678.271 Z" fill="none" clip-rule="nonzero"/></clipPath><clipPath id="clippath44" transform=""><path d="M 0 792 L 612 792 L 612 0 L 0 0 Z" fill="none" clip-rule="nonzero"/></clipPath></defs><g transform="matrix(1.3333333333 0 0 -1.3333333333 0 1056)"><g transform=""><path d="M 0 792 L 612 792 L 612 0 L 0 0 Z" fill="none"/></g><g clip-path="url(#clippath38)"><g transform="matrix(280.3199937 0 0 520.7999884 32.2075729 74.2703852)"><image x="0" y="-2170" width="1168px" height="2170px" transform="scale(0.0008561644 -0.0004608295)" id="InlineImageXObject_412467663" data-checksum="7606498" onload="this.setAttribute(&quot;complete&quot;,&quot;true&quot;)" href="images/InlineImageXObject_412467663.webp"/></g></g><g clip-path="url(#clippath38)"><g transform="matrix(280.3199937 0 0 520.7999884 32.2075729 74.2703852)"><image x="0" y="-2170" width="1168px" height="2170px" transform="scale(0.0008561644 -0.0004608295)" id="InlineImageXObject_864463121" data-checksum="10141248" onload="this.setAttribute(&quot;complete&quot;,&quot;true&quot;)" href="images/InlineImageXObject_864463121.webp"/></g></g><g transform=""><path d="M 47.364 96.353 L 297.443 96.353 L 297.443 586.913 L 47.364 586.913 Z" fill="none"/></g><g clip-path="url(#clippath39)"><g transform="matrix(250.0799944 0 0 490.559989 47.3641052 96.35328)"><image x="0" y="-1022" width="521px" height="1022px" transform="scale(0.0019193858 -0.0009784736)" id="InlineImageXObject_-1485834936" data-checksum="2131098" onload="this.setAttribute(&quot;complete&quot;,&quot;true&quot;)" href="images/InlineImageXObject_-1485834936.webp"/></g></g><g transform=""><path d="M 0 792 L 612 792 L 612 0 L 0 0 Z" fill="none"/></g><g clip-path="url(#clippath40)"><g transform="matrix(282.4799937 0 0 531.8399881 299.3275757 65.8704001)"><image x="0" y="-2216" width="1177px" height="2216px" transform="scale(0.0008496177 -0.0004512635)" id="InlineImageXObject_-1622289258" data-checksum="7827575" onload="this.setAttribute(&quot;complete&quot;,&quot;true&quot;)" href="images/InlineImageXObject_-1622289258.webp"/></g></g><g clip-path="url(#clippath40)"><g transform="matrix(282.4799937 0 0 531.8399881 299.3275757 65.8704001)"><image x="0" y="-2216" width="1177px" height="2216px" transform="scale(0.0008496177 -0.0004512635)" id="InlineImageXObject_1507182972" data-checksum="10436007" onload="this.setAttribute(&quot;complete&quot;,&quot;true&quot;)" href="images/InlineImageXObject_1507182972.webp"/></g></g><g transform="matrix(251.9999944 0 0 501.5999888 314.5128784 87.9196645)"><image x="0" y="-1045" width="525px" height="1045px" transform="scale(0.0019047619 -0.0009569378)" id="InlineImageXObject_568123126" data-checksum="2195778" onload="this.setAttribute(&quot;complete&quot;,&quot;true&quot;)" href="images/InlineImageXObject_568123126.webp"/></g><g transform=""><path d="M 0 792 L 612 792 L 612 0 L 0 0 Z" fill="none"/></g><g clip-path="url(#clippath41)"><g transform="translate(544.3113 23.6587)"><path d="M 0 0 L 0.664 0 L 0.664 -0.436 C 0.502 -0.552 0.303 -0.618 0.108 -0.618 C -0.378 -0.618 -0.789 -0.195 -0.789 0.303 C -0.789 0.797 -0.378 1.22 0.108 1.22 C 0.369 1.22 0.648 1.096 0.818 0.901 L 1.262 1.299 C 0.975 1.598 0.535 1.777 0.108 1.777 C -0.718 1.777 -1.42 1.104 -1.42 0.303 C -1.42 -0.498 -0.718 -1.175 0.108 -1.175 C 0.535 -1.175 0.975 -0.996 1.262 -0.697 L 1.262 0.477 L 0 0.477 Z M 4.801 -1.175 C 5.627 -1.175 6.316 -0.498 6.316 0.303 C 6.316 1.104 5.627 1.777 4.801 1.777 C 3.983 1.777 3.286 1.104 3.286 0.303 C 3.286 -0.498 3.983 -1.175 4.801 -1.175 M 4.801 -0.618 C 4.323 -0.618 3.917 -0.195 3.917 0.303 C 3.917 0.797 4.323 1.22 4.801 1.22 C 5.282 1.22 5.689 0.797 5.689 0.303 C 5.689 -0.195 5.282 -0.618 4.801 -0.618 M 8.983 -0.573 L 8.983 1.727 L 8.369 1.727 L 8.369 -1.125 L 10.403 -1.125 L 10.403 -0.573 Z M 14.614 1.175 L 14.614 1.727 L 12.418 1.727 L 12.418 -1.125 L 13.033 -1.125 L 13.033 0.004 L 14.465 0.004 L 14.465 0.556 L 13.033 0.556 L 13.033 1.175 Z" fill="#d02a2f" fill-opacity="1"/></g></g><g clip-path="url(#clippath41)"><g transform="translate(532.3205 27.8121)"><path d="M 0 0 C -0.103 0.369 -0.218 0.749 -0.321 1.116 C -0.401 1.415 -0.55 1.933 -0.676 2.38 C -0.814 2.829 -0.711 3.322 -0.424 3.7 C -0.218 3.986 -0.138 4.342 -0.08 4.686 C 0 5.419 -0.069 6.302 -0.218 6.668 C -0.367 7.035 -0.55 7.299 -0.768 7.425 C -0.986 7.551 -1.261 7.654 -1.627 7.688 C -1.685 7.7 -1.742 7.7 -1.811 7.7 L -2.476 7.7 C -3.175 7.7 -3.496 7.528 -3.496 6.875 L -3.496 -0.172 C -3.496 -0.287 -3.438 -0.413 -3.347 -0.493 C -3.266 -0.575 -3.129 -0.632 -3.003 -0.632 C -2.739 -0.621 -2.521 -0.424 -2.521 -0.172 L -2.521 2.414 C -2.521 2.737 -2.361 2.944 -2.155 2.944 L -2.143 2.944 C -1.88 2.944 -1.765 2.646 -1.731 2.52 C -1.65 2.254 -1.639 2.185 -1.559 1.91 C -1.387 1.324 -1.226 0.737 -1.054 0.139 C -1.02 0.011 -0.974 -0.126 -0.94 -0.264 C -0.905 -0.378 -0.825 -0.493 -0.711 -0.55 C -0.607 -0.621 -0.458 -0.644 -0.344 -0.609 C -0.092 -0.527 0.08 -0.264 0 0 M -1.089 4.812 C -1.089 4.651 -1.135 4.479 -1.18 4.388 C -1.272 4.216 -1.467 4.044 -1.65 4.009 C -1.696 3.998 -1.925 3.998 -2.029 3.986 L -2.029 3.998 C -2.304 3.986 -2.521 4.101 -2.521 4.365 L -2.521 6.198 C -2.476 6.382 -2.361 6.542 -2.097 6.542 L -1.799 6.542 C -1.249 6.474 -1.089 6.072 -1.089 5.614 Z M 3.667 0.445 L 2.739 0.445 C 2.361 0.445 2.052 0.755 2.052 1.133 L 2.052 2.405 C 2.052 2.783 2.361 3.093 2.739 3.093 L 3.14 3.093 L 3.358 3.093 C 3.473 3.093 3.61 3.15 3.702 3.23 C 3.782 3.322 3.851 3.528 3.839 3.643 C 3.828 3.906 3.622 4.124 3.358 4.124 L 2.739 4.124 C 2.361 4.124 2.052 4.433 2.052 4.812 L 2.052 5.958 C 2.052 6.336 2.361 6.645 2.739 6.645 L 3.415 6.645 L 3.667 6.645 C 3.782 6.645 3.92 6.703 4.011 6.783 C 4.092 6.875 4.16 7.069 4.149 7.184 C 4.137 7.448 3.931 7.7 3.667 7.7 L 2.98 7.7 L 1.88 7.7 L 1.627 7.7 L 1.605 7.7 L 1.559 7.7 C 1.295 7.688 1.077 7.482 1.077 7.207 L 1.077 6.474 L 1.077 4.731 L 1.077 2.623 L 1.077 0.777 C 1.077 0.491 1.066 0.193 1.077 -0.105 L 1.077 -0.117 C 1.077 -0.243 1.123 -0.369 1.215 -0.46 C 1.307 -0.541 1.444 -0.609 1.559 -0.609 L 1.627 -0.609 L 2.315 -0.609 L 3.415 -0.609 L 3.667 -0.609 C 3.782 -0.609 3.92 -0.552 4.011 -0.472 C 4.092 -0.38 4.16 -0.197 4.149 -0.082 C 4.137 0.193 3.931 0.445 3.667 0.445 M 8.424 5.475 C 8.424 6.118 8.355 6.691 8.16 6.955 C 8.057 7.115 7.862 7.31 7.69 7.413 C 7.472 7.551 7.197 7.665 6.831 7.7 C 6.624 7.723 6.395 7.711 6.166 7.711 C 5.467 7.711 5.146 7.539 5.146 6.886 L 5.146 0.01 C 5.146 -0.724 5.948 -0.632 6.166 -0.632 L 6.51 -0.632 C 6.636 -0.632 6.739 -0.632 6.831 -0.621 C 6.877 -0.621 7.232 -0.586 7.381 -0.529 C 7.576 -0.46 7.748 -0.403 7.885 -0.254 C 8.137 0.01 8.412 0.422 8.412 1.064 Z M 6.785 0.514 C 6.315 0.514 6.143 0.904 6.143 1.167 L 6.143 5.878 C 6.143 6.118 6.292 6.496 6.773 6.496 C 7.255 6.496 7.415 5.923 7.415 5.532 L 7.415 1.559 C 7.415 1.075 7.323 0.514 6.785 0.514 M 15.197 0 C 15.094 0.369 14.979 0.749 14.876 1.116 C 14.796 1.415 14.647 1.933 14.521 2.38 C 14.383 2.829 14.487 3.322 14.773 3.7 C 14.979 3.986 15.06 4.342 15.117 4.686 C 15.197 5.419 15.128 6.302 14.979 6.668 C 14.83 7.035 14.647 7.299 14.429 7.425 C 14.211 7.551 13.936 7.654 13.57 7.688 C 13.512 7.7 13.455 7.7 13.386 7.7 L 12.722 7.7 C 12.022 7.7 11.702 7.528 11.702 6.875 L 11.702 -0.172 C 11.702 -0.287 11.759 -0.413 11.851 -0.493 C 11.931 -0.575 12.068 -0.632 12.194 -0.632 C 12.458 -0.621 12.676 -0.424 12.676 -0.172 L 12.676 2.414 C 12.676 2.737 12.836 2.944 13.042 2.944 L 13.054 2.944 C 13.318 2.944 13.432 2.646 13.466 2.52 C 13.547 2.254 13.558 2.185 13.638 1.91 C 13.81 1.324 13.971 0.737 14.143 0.139 C 14.177 0.011 14.223 -0.126 14.257 -0.264 C 14.292 -0.378 14.372 -0.493 14.487 -0.55 C 14.59 -0.621 14.739 -0.644 14.853 -0.609 C 15.105 -0.527 15.277 -0.264 15.197 0 M 14.108 4.812 C 14.108 4.651 14.063 4.479 14.017 4.388 C 13.925 4.216 13.73 4.044 13.547 4.009 C 13.501 3.998 13.272 3.998 13.169 3.986 L 13.169 3.998 C 12.893 3.986 12.676 4.101 12.676 4.365 L 12.676 6.198 C 12.722 6.382 12.836 6.542 13.1 6.542 L 13.398 6.542 C 13.948 6.474 14.108 6.072 14.108 5.614 Z M 19.518 6.577 C 19.438 6.875 19.254 7.15 19.025 7.333 C 18.865 7.459 18.716 7.539 18.521 7.608 C 18.372 7.665 18.2 7.7 18.051 7.7 C 17.81 7.711 17.57 7.7 17.352 7.62 C 17.008 7.505 16.733 7.299 16.538 7.024 C 16.343 6.76 16.274 6.451 16.274 6.13 L 16.274 1.03 C 16.274 0.846 16.274 0.663 16.32 0.491 C 16.4 0.193 16.584 -0.082 16.813 -0.265 C 16.974 -0.392 17.123 -0.472 17.317 -0.541 C 17.466 -0.598 17.638 -0.632 17.787 -0.632 C 18.028 -0.644 18.269 -0.632 18.486 -0.552 C 18.83 -0.437 19.105 -0.231 19.3 0.044 C 19.495 0.308 19.564 0.617 19.564 0.938 L 19.564 6.038 C 19.564 6.221 19.564 6.405 19.518 6.577 M 18.555 5.706 L 18.555 1.465 L 18.555 1.144 C 18.555 0.892 18.395 0.502 17.913 0.502 C 17.432 0.502 17.283 0.881 17.283 1.121 L 17.283 1.362 L 17.283 5.602 L 17.283 5.912 C 17.283 6.176 17.455 6.565 17.925 6.565 C 18.418 6.565 18.555 6.176 18.555 5.946 Z M 23.827 6.577 C 23.747 6.875 23.564 7.15 23.334 7.333 C 23.174 7.459 23.025 7.539 22.83 7.608 C 22.681 7.665 22.509 7.7 22.36 7.7 C 22.119 7.711 21.879 7.7 21.661 7.62 C 21.317 7.505 21.042 7.299 20.847 7.024 C 20.652 6.76 20.584 6.451 20.584 6.13 L 20.584 1.03 C 20.584 0.846 20.584 0.663 20.63 0.491 C 20.71 0.193 20.893 -0.082 21.122 -0.265 C 21.283 -0.392 21.432 -0.472 21.627 -0.541 C 21.776 -0.598 21.948 -0.632 22.097 -0.632 C 22.337 -0.644 22.578 -0.632 22.796 -0.552 C 23.14 -0.437 23.415 -0.231 23.609 0.044 C 23.804 0.308 23.873 0.617 23.873 0.938 L 23.873 6.038 C 23.873 6.221 23.873 6.405 23.827 6.577 M 22.864 5.706 L 22.864 1.465 L 22.864 1.144 C 22.864 0.892 22.704 0.502 22.223 0.502 C 21.741 0.502 21.592 0.881 21.592 1.121 L 21.592 1.362 L 21.592 5.602 L 21.592 5.912 C 21.592 6.176 21.764 6.565 22.234 6.565 C 22.727 6.565 22.864 6.176 22.864 5.946 Z M 27.85 2.947 C 27.586 3.385 27.22 3.774 26.876 4.155 C 26.715 4.326 26.543 4.51 26.394 4.693 C 26.268 4.865 26.154 5.05 26.062 5.245 C 26.016 5.371 25.982 5.509 25.959 5.635 C 25.947 5.75 25.947 5.855 25.947 5.969 C 25.982 6.221 26.165 6.554 26.589 6.554 C 26.979 6.554 27.151 6.29 27.197 6.072 C 27.197 6.061 27.208 6.027 27.208 5.969 C 27.22 5.704 27.449 5.497 27.712 5.497 L 27.747 5.497 C 28.022 5.497 28.24 5.727 28.24 5.992 L 28.24 6.267 C 28.228 6.382 28.217 6.474 28.194 6.565 C 28.114 6.863 27.93 7.138 27.701 7.322 C 27.541 7.448 27.38 7.528 27.185 7.597 C 27.036 7.654 26.864 7.688 26.715 7.688 C 26.475 7.7 26.234 7.688 26.016 7.608 C 25.661 7.494 25.386 7.287 25.191 7.012 C 24.721 6.233 24.927 5.131 25.271 4.51 C 25.535 4.063 25.902 3.683 26.257 3.282 C 26.417 3.098 26.589 2.913 26.75 2.718 C 26.876 2.535 27.002 2.351 27.094 2.143 C 27.151 2.006 27.185 1.868 27.208 1.719 C 27.22 1.627 27.22 1.536 27.22 1.444 L 27.22 1.398 L 27.22 1.247 L 27.22 1.167 C 27.22 0.915 27.059 0.502 26.578 0.502 C 26.096 0.502 25.947 0.904 25.947 1.144 L 25.947 1.41 C 25.947 1.673 25.73 1.891 25.443 1.891 L 25.42 1.891 C 25.145 1.891 24.927 1.673 24.927 1.41 L 24.927 1.053 C 24.927 0.869 24.927 0.663 24.973 0.491 C 25.053 0.193 25.237 -0.082 25.466 -0.265 C 25.627 -0.392 25.787 -0.472 25.982 -0.541 C 26.131 -0.598 26.303 -0.632 26.452 -0.632 C 26.692 -0.644 26.933 -0.632 27.151 -0.552 C 27.506 -0.437 27.781 -0.231 27.976 0.044 C 28.251 0.411 28.263 0.904 28.263 1.329 C 28.263 1.891 28.136 2.466 27.85 2.947 M 32.377 7.127 C 32.366 7.436 32.159 7.7 31.884 7.7 L 31.07 7.7 L 29.764 7.7 L 29.454 7.7 C 29.34 7.7 29.202 7.643 29.111 7.539 C 29.03 7.436 28.962 7.264 28.973 7.127 C 28.985 6.806 29.191 6.542 29.454 6.542 L 29.741 6.542 C 29.993 6.542 30.188 6.347 30.188 6.107 L 30.188 4.718 L 30.188 2.605 L 30.188 0.758 C 30.188 0.47 30.177 0.172 30.188 -0.126 L 30.188 -0.138 C 30.188 -0.264 30.245 -0.39 30.326 -0.483 C 30.417 -0.563 30.555 -0.632 30.669 -0.632 C 30.933 -0.621 31.162 -0.413 31.162 -0.138 L 31.162 0.596 L 31.162 2.342 L 31.162 4.466 L 31.162 6.107 C 31.162 6.347 31.357 6.542 31.598 6.542 L 31.884 6.542 C 32.01 6.542 32.148 6.611 32.228 6.714 C 32.32 6.817 32.377 6.978 32.377 7.127 M 35.896 0.445 L 34.967 0.445 C 34.589 0.445 34.279 0.755 34.279 1.133 L 34.279 2.405 C 34.279 2.783 34.589 3.093 34.967 3.093 L 35.368 3.093 L 35.586 3.093 C 35.701 3.093 35.838 3.15 35.93 3.23 C 36.01 3.322 36.079 3.528 36.067 3.643 C 36.056 3.906 35.85 4.124 35.586 4.124 L 34.967 4.124 C 34.589 4.124 34.279 4.433 34.279 4.812 L 34.279 5.958 C 34.279 6.336 34.589 6.645 34.967 6.645 L 35.643 6.645 L 35.896 6.645 C 36.01 6.645 36.148 6.703 36.239 6.783 C 36.32 6.875 36.388 7.069 36.377 7.184 C 36.365 7.448 36.159 7.7 35.896 7.7 L 35.208 7.7 L 34.108 7.7 L 33.855 7.7 L 33.833 7.7 L 33.787 7.7 C 33.523 7.688 33.305 7.482 33.305 7.207 L 33.305 6.474 L 33.305 4.731 L 33.305 2.623 L 33.305 0.777 C 33.305 0.491 33.294 0.193 33.305 -0.105 L 33.305 -0.117 C 33.305 -0.243 33.351 -0.369 33.443 -0.46 C 33.535 -0.541 33.672 -0.609 33.787 -0.609 L 33.855 -0.609 L 34.543 -0.609 L 35.643 -0.609 L 35.896 -0.609 C 36.01 -0.609 36.148 -0.552 36.239 -0.472 C 36.32 -0.38 36.388 -0.197 36.377 -0.082 C 36.365 0.193 36.159 0.445 35.896 0.445 M 40.812 0 C 40.709 0.369 40.594 0.749 40.491 1.116 C 40.411 1.415 40.262 1.933 40.136 2.38 C 39.998 2.829 40.102 3.322 40.388 3.7 C 40.594 3.986 40.675 4.342 40.732 4.686 C 40.812 5.419 40.743 6.302 40.594 6.668 C 40.445 7.035 40.262 7.299 40.044 7.425 C 39.827 7.551 39.552 7.654 39.185 7.688 C 39.128 7.7 39.07 7.7 39.001 7.7 L 38.337 7.7 C 37.638 7.7 37.317 7.528 37.317 6.875 L 37.317 -0.172 C 37.317 -0.287 37.374 -0.413 37.466 -0.493 C 37.546 -0.575 37.683 -0.632 37.809 -0.632 C 38.073 -0.621 38.291 -0.424 38.291 -0.172 L 38.291 2.414 C 38.291 2.737 38.451 2.944 38.658 2.944 L 38.669 2.944 C 38.933 2.944 39.047 2.646 39.082 2.52 C 39.162 2.254 39.173 2.185 39.254 1.91 C 39.425 1.324 39.586 0.737 39.758 0.139 C 39.792 0.011 39.838 -0.126 39.872 -0.264 C 39.907 -0.378 39.987 -0.493 40.102 -0.55 C 40.205 -0.621 40.354 -0.644 40.468 -0.609 C 40.721 -0.527 40.892 -0.264 40.812 0 M 39.723 4.812 C 39.723 4.651 39.678 4.479 39.632 4.388 C 39.54 4.216 39.345 4.044 39.162 4.009 C 39.116 3.998 38.887 3.998 38.784 3.986 L 38.784 3.998 C 38.509 3.986 38.291 4.101 38.291 4.365 L 38.291 6.198 C 38.337 6.382 38.451 6.542 38.715 6.542 L 39.013 6.542 C 39.563 6.474 39.723 6.072 39.723 5.614 Z" fill="#d02a2f" fill-opacity="1"/></g></g><g clip-path="url(#clippath41)"><g transform="translate(559.3981 44.0237)"><path d="M 0 0 L -1.802 1.831 C -1.008 2.156 -1.323 3.463 -2.919 4.551 C -2.621 5.245 -2.354 5.419 -2.552 6.393 C -2.782 7.528 -3.766 8.366 -4.819 9.971 C -3.873 10.345 -4.652 10.978 -4.927 11.457 C -5.217 12.008 -4.879 12.209 -4.309 12.236 C -4.583 12.454 -4.902 12.536 -5.304 12.466 C -5.64 12.408 -5.551 12.749 -5.37 12.905 C -5.159 13.086 -4.905 13.228 -4.454 13.217 C -4.71 13.468 -4.968 13.529 -5.147 13.501 C -4.736 14.993 -6.307 15.159 -7.424 14.906 C -6.94 14.731 -7.001 14.506 -7.09 14.404 C -7.324 14.134 -7.892 14.804 -8.69 14.211 C -7.554 13.594 -8.63 13.362 -9.53 13.282 L -8.736 12.532 C -8.381 12.196 -7.826 12.27 -7.385 12.55 L -8.107 10.994 L -8.144 10.913 C -8.342 10.588 -8.42 10.233 -8.162 9.163 L -4.428 5.366 L -5.603 5.796 L -13.622 14.053 L -12.739 15.512 C -13.078 16.259 -14.184 16.693 -14.329 15.993 L -14.485 15.239 C -14.593 14.712 -14.656 14.358 -14.077 13.755 L -7.913 7.347 C -7.962 6.552 -8.398 6.088 -9.481 6.033 C -9.168 5.713 -8.851 5.559 -8.529 5.583 C -9.234 4.642 -10.553 4.751 -10.59 6.994 C -10.632 9.635 -13.261 11.328 -15.42 11.365 C -17.047 11.33 -18.653 10.508 -18.872 8.47 C -17.801 9.976 -16.25 9.873 -15.341 8.847 C -16.613 8.812 -17.62 7.41 -17.308 5.902 C -16.153 6.947 -13.57 6.372 -13.095 5.253 C -14.865 6.328 -16.975 5.339 -15.916 2.68 C -14.817 4.851 -13.653 2.404 -11.923 2.639 C -11.627 2.115 -10.341 1.347 -9.745 1.018 L -9.384 -1.491 L -8.816 -3.745 C -8.775 -3.908 -8.907 -4.046 -9.19 -4.123 C -9.505 -4.208 -9.302 -4.429 -9.073 -4.436 L -8.724 -4.446 L -8.369 -5.645 C -8.277 -5.956 -7.963 -5.887 -8.006 -5.614 C -8.172 -4.556 -7.633 -4.989 -6.711 -5.773 C -6.515 -5.94 -5.95 -5.944 -6.276 -5.646 L -7.263 -4.747 L -6.855 -4.798 C -6.492 -4.843 -6.641 -4.594 -6.916 -4.517 C -7.752 -4.28 -8.156 -4.006 -8.278 -3.242 L -8.518 -1.748 L -7.739 0.284 C -7.434 0.239 -7.147 0.231 -6.875 0.257 L -6.847 -0.352 C -6.844 -0.436 -6.811 -0.516 -6.755 -0.58 L -5.091 -2.471 C -4.72 -2.893 -4.9 -3.16 -5.248 -3.426 C -5.498 -3.617 -5.226 -3.747 -5.022 -3.674 L -4.452 -3.469 L -3.547 -4.474 C -3.32 -4.727 -3.065 -4.547 -3.242 -4.312 C -3.638 -3.786 -3.761 -3.614 -1.999 -4.049 C -1.757 -4.109 -1.336 -3.936 -1.742 -3.793 L -3.132 -3.304 L -2.733 -3.222 C -2.393 -3.152 -2.659 -2.907 -2.931 -2.922 C -3.649 -2.963 -3.978 -2.873 -4.4 -2.404 L -5.715 -0.946 L -5.423 -0.119 C -5.395 -0.04 -5.401 0.048 -5.44 0.125 L -5.685 0.614 C -4.777 0.831 -4.804 1.153 -4.204 1.967 L -2.563 1.801 L -0.459 -0.386 C -0.406 -0.441 -0.324 -0.45 -0.273 -0.408 L 0.006 -0.182 C 0.058 -0.14 0.054 -0.055 0 0" fill="#d02a2f" fill-rule="evenodd" fill-opacity="1"/></g></g><g clip-path="url(#clippath41)"><g transform="translate(275.3352 47.1111)"><path d="M 0 0 L -2.368 -1.106 L 8.142 -9.616 C 8.383 -9.812 8.473 -10.139 8.365 -10.431 L 7.069 -14.005 L 16.663 -12.318 C 17.24 -12.219 17.789 -12.607 17.888 -13.184 C 17.901 -13.26 17.906 -13.336 17.902 -13.413 L 17.4 -23.051 L 19.41 -23.051 L 18.908 -13.413 C 18.881 -12.828 19.333 -12.331 19.919 -12.304 C 19.995 -12.301 20.072 -12.305 20.147 -12.318 L 29.741 -14.005 L 28.445 -10.431 C 28.337 -10.139 28.427 -9.812 28.669 -9.616 L 39.178 -1.106 L 36.81 0 C 36.479 0.156 36.316 0.535 36.43 0.882 L 38.508 7.27 L 32.454 5.986 C 32.116 5.916 31.775 6.093 31.639 6.41 L 30.467 9.169 L 25.742 4.099 C 25.467 3.808 25.007 3.796 24.716 4.071 C 24.536 4.242 24.456 4.492 24.503 4.735 L 26.781 16.484 L 23.129 14.373 C 22.783 14.171 22.339 14.287 22.136 14.633 C 22.128 14.646 22.12 14.661 22.113 14.675 L 18.405 21.956 L 14.697 14.675 C 14.518 14.316 14.082 14.171 13.723 14.35 C 13.709 14.358 13.695 14.365 13.681 14.373 L 10.029 16.484 L 12.307 4.735 C 12.383 4.342 12.125 3.961 11.732 3.885 C 11.488 3.839 11.238 3.919 11.068 4.099 L 6.343 9.169 L 5.171 6.41 C 5.035 6.093 4.694 5.916 4.356 5.986 L -1.698 7.27 L 0.38 0.882 C 0.494 0.535 0.331 0.156 0 0" fill="#ed2224" fill-opacity="1"/></g></g><g transform=""><path d="M 0 792 L 612 792 L 612 0 L 0 0 Z" fill="none"/></g><g clip-path="url(#clippath42)"><g transform="translate(469.4221 648.0035)"><path d="M 0 0 C 0.061 0.322 0.124 0.783 0.138 1.337 C 0.153 1.893 0.115 2.534 -0.01 3.232 C -0.13 3.942 -0.341 4.701 -0.692 5.458 C -0.872 5.829 -1.056 6.223 -1.269 6.577 C -1.479 6.935 -1.707 7.274 -1.943 7.592 C -2.17 7.923 -2.401 8.24 -2.635 8.529 C -2.866 8.823 -3.107 9.077 -3.32 9.335 C -3.747 9.847 -4.143 10.252 -4.433 10.531 C -4.713 10.823 -4.887 10.988 -4.887 10.988 C -4.887 10.988 -4.993 10.828 -5.138 10.537 C -5.283 10.246 -5.468 9.823 -5.623 9.293 C -5.778 8.761 -5.885 8.144 -5.889 7.434 C -5.89 7.081 -5.864 6.707 -5.8 6.315 C -5.768 6.119 -5.727 5.919 -5.676 5.714 C -5.621 5.514 -5.553 5.315 -5.474 5.11 C -5.316 4.701 -5.118 4.299 -4.892 3.908 C -4.778 3.715 -4.663 3.514 -4.53 3.336 C -4.4 3.156 -4.263 2.979 -4.123 2.806 C -3.843 2.461 -3.547 2.132 -3.25 1.823 C -2.951 1.518 -2.635 1.258 -2.34 1.009 C -2.042 0.763 -1.756 0.541 -1.495 0.346 C -1.232 0.155 -0.985 0.009 -0.782 -0.119 C -0.374 -0.37 -0.12 -0.505 -0.12 -0.505 C -0.12 -0.505 -0.061 -0.322 0 0" fill="#101010" fill-opacity="1"/></g></g><g clip-path="url(#clippath42)"><g transform="translate(468.0372 646.1289)"><path d="M 0 0 C 0.438 0.355 0.752 0.699 0.959 0.952 C 1.166 1.206 1.265 1.37 1.265 1.37 C 1.265 1.37 0.999 1.478 0.544 1.633 C 0.314 1.708 0.039 1.797 -0.272 1.898 C -0.58 2.006 -0.926 2.12 -1.302 2.231 C -1.677 2.346 -2.09 2.446 -2.511 2.561 C -2.93 2.68 -3.372 2.791 -3.828 2.884 C -4.056 2.931 -4.288 2.974 -4.523 3.012 C -4.759 3.048 -4.986 3.097 -5.221 3.13 C -5.689 3.201 -6.164 3.247 -6.64 3.259 C -6.877 3.266 -7.111 3.262 -7.335 3.256 C -7.557 3.253 -7.773 3.243 -7.983 3.226 C -8.403 3.191 -8.8 3.13 -9.172 3.05 C -9.914 2.893 -10.563 2.651 -11.078 2.419 C -11.595 2.185 -11.995 1.938 -12.265 1.748 C -12.535 1.559 -12.674 1.426 -12.674 1.426 C -12.674 1.426 -12.409 1.224 -11.941 0.923 C -11.464 0.634 -10.784 0.246 -9.984 -0.149 C -9.585 -0.348 -9.134 -0.518 -8.676 -0.694 C -8.214 -0.865 -7.734 -1.03 -7.242 -1.165 C -6.741 -1.287 -6.232 -1.387 -5.727 -1.456 C -5.219 -1.519 -4.726 -1.571 -4.225 -1.541 C -3.232 -1.497 -2.396 -1.294 -1.702 -1.016 C -1.001 -0.727 -0.437 -0.353 0 0" fill="#101010" fill-opacity="1"/></g></g><g clip-path="url(#clippath42)"><g transform="translate(478.5574 646.2289)"><path d="M 0 0 C -0.106 0.548 -0.28 1.177 -0.555 1.83 C -0.693 2.158 -0.857 2.487 -1.049 2.822 C -1.239 3.168 -1.457 3.514 -1.71 3.852 C -1.963 4.191 -2.238 4.506 -2.526 4.799 C -2.808 5.108 -3.101 5.4 -3.399 5.666 C -3.547 5.799 -3.697 5.927 -3.846 6.049 C -3.996 6.171 -4.146 6.285 -4.288 6.409 C -4.576 6.65 -4.859 6.867 -5.128 7.06 C -5.262 7.157 -5.393 7.248 -5.519 7.333 C -5.582 7.375 -5.644 7.416 -5.705 7.456 C -5.764 7.499 -5.822 7.541 -5.878 7.581 C -6.102 7.742 -6.304 7.877 -6.474 7.987 C -6.814 8.205 -7.024 8.318 -7.024 8.318 C -7.024 8.318 -7.092 8.14 -7.169 7.826 C -7.246 7.511 -7.332 7.061 -7.364 6.516 C -7.395 5.97 -7.372 5.328 -7.223 4.628 C -7.151 4.273 -7.039 3.923 -6.888 3.562 C -6.737 3.201 -6.545 2.832 -6.304 2.46 C -5.83 1.698 -5.172 1.08 -4.482 0.504 C -4.308 0.365 -4.135 0.219 -3.954 0.098 C -3.773 -0.024 -3.592 -0.141 -3.411 -0.253 C -3.05 -0.477 -2.691 -0.681 -2.349 -0.863 C -2.009 -1.054 -1.675 -1.184 -1.376 -1.31 C -1.076 -1.433 -0.807 -1.536 -0.581 -1.618 C -0.13 -1.782 0.146 -1.863 0.146 -1.863 C 0.146 -1.863 0.164 -1.672 0.154 -1.343 C 0.145 -1.014 0.106 -0.548 0 0" fill="#101010" fill-opacity="1"/></g></g><g clip-path="url(#clippath42)"><g transform="translate(477.9456 644.4784)"><path d="M 0 0 C -0.238 0.03 -0.526 0.062 -0.852 0.09 C -1.178 0.121 -1.546 0.133 -1.934 0.175 C -2.324 0.209 -2.742 0.235 -3.181 0.247 C -3.4 0.254 -3.625 0.256 -3.853 0.255 C -4.081 0.253 -4.307 0.266 -4.54 0.263 C -5.463 0.27 -6.443 0.167 -7.363 0.017 C -7.827 -0.067 -8.261 -0.18 -8.667 -0.313 C -9.073 -0.446 -9.45 -0.603 -9.791 -0.752 C -10.478 -1.061 -11.05 -1.423 -11.505 -1.77 C -11.961 -2.117 -12.299 -2.449 -12.521 -2.695 C -12.744 -2.941 -12.851 -3.101 -12.851 -3.101 C -12.851 -3.101 -12.543 -3.231 -12.018 -3.418 C -11.756 -3.511 -11.439 -3.619 -11.081 -3.732 C -10.991 -3.759 -10.899 -3.787 -10.804 -3.817 C -10.708 -3.841 -10.609 -3.865 -10.508 -3.891 C -10.306 -3.94 -10.094 -3.989 -9.875 -4.037 C -9.438 -4.132 -8.97 -4.222 -8.486 -4.297 C -8.245 -4.339 -7.994 -4.36 -7.741 -4.38 C -7.489 -4.399 -7.234 -4.413 -6.978 -4.422 C -6.466 -4.439 -5.951 -4.436 -5.445 -4.397 C -4.934 -4.341 -4.434 -4.255 -3.957 -4.132 C -3.48 -4.009 -3.05 -3.855 -2.662 -3.68 C -2.271 -3.495 -1.922 -3.283 -1.612 -3.065 C -0.992 -2.629 -0.525 -2.154 -0.177 -1.716 C 0.172 -1.278 0.404 -0.876 0.551 -0.585 C 0.697 -0.294 0.758 -0.113 0.758 -0.113 C 0.758 -0.113 0.477 -0.06 0 0" fill="#101010" fill-opacity="1"/></g></g><g clip-path="url(#clippath42)"><g transform="translate(461.459 654.3345)"><path d="M 0 0 C 0.139 0.542 0.252 1.187 0.284 1.898 C 0.3 2.253 0.295 2.624 0.264 3.007 C 0.228 3.385 0.189 3.804 0.103 4.216 C 0.021 4.631 -0.092 5.035 -0.225 5.423 C -0.357 5.814 -0.49 6.211 -0.647 6.577 C -0.798 6.949 -0.975 7.289 -1.133 7.629 C -1.291 7.97 -1.454 8.288 -1.615 8.578 C -1.947 9.149 -2.222 9.651 -2.439 9.992 C -2.654 10.335 -2.797 10.528 -2.797 10.528 C -2.797 10.528 -2.934 10.395 -3.137 10.143 C -3.341 9.892 -3.611 9.522 -3.871 9.042 C -4.132 8.562 -4.384 7.972 -4.548 7.275 C -4.588 7.102 -4.626 6.919 -4.651 6.735 C -4.675 6.552 -4.692 6.362 -4.701 6.167 C -4.718 5.776 -4.702 5.36 -4.644 4.921 C -4.614 4.701 -4.575 4.481 -4.527 4.261 C -4.478 4.041 -4.409 3.833 -4.339 3.62 C -4.197 3.196 -4.024 2.778 -3.833 2.373 C -3.649 1.96 -3.414 1.594 -3.187 1.232 C -2.957 0.874 -2.721 0.535 -2.491 0.222 C -2.011 -0.38 -1.549 -0.87 -1.214 -1.215 C -1.047 -1.387 -0.909 -1.521 -0.808 -1.604 C -0.708 -1.689 -0.653 -1.736 -0.653 -1.736 C -0.653 -1.736 -0.555 -1.571 -0.426 -1.272 C -0.295 -0.97 -0.141 -0.545 0 0" fill="#101010" fill-opacity="1"/></g></g><g clip-path="url(#clippath42)"><g transform="translate(457.3981 650.9333)"><path d="M 0 0 C 0.746 0.127 1.369 0.356 1.87 0.602 C 2.369 0.845 2.76 1.122 3.017 1.323 C 3.275 1.527 3.408 1.665 3.408 1.665 C 3.408 1.665 3.347 1.704 3.236 1.775 C 3.122 1.842 2.963 1.949 2.762 2.08 C 2.36 2.342 1.78 2.689 1.088 3.064 C 0.751 3.262 0.385 3.466 -0.005 3.666 C -0.392 3.869 -0.818 4.054 -1.229 4.259 C -1.647 4.458 -2.083 4.644 -2.531 4.807 C -2.754 4.891 -2.986 4.962 -3.21 5.038 C -3.433 5.114 -3.658 5.183 -3.886 5.244 C -4.34 5.366 -4.781 5.45 -5.205 5.503 C -5.417 5.529 -5.624 5.548 -5.827 5.56 C -6.028 5.573 -6.219 5.584 -6.408 5.587 C -7.161 5.6 -7.833 5.516 -8.393 5.396 C -8.953 5.276 -9.4 5.12 -9.707 4.992 C -10.013 4.864 -10.178 4.765 -10.178 4.765 C -10.178 4.765 -9.955 4.517 -9.56 4.125 C -9.163 3.735 -8.609 3.189 -7.889 2.652 C -7.534 2.379 -7.15 2.099 -6.744 1.824 C -6.338 1.55 -5.886 1.305 -5.435 1.067 C -4.977 0.834 -4.518 0.609 -4.035 0.438 C -3.55 0.268 -3.062 0.131 -2.579 0.037 C -2.093 -0.054 -1.649 -0.111 -1.211 -0.104 C -0.776 -0.102 -0.373 -0.064 0 0" fill="#101010" fill-opacity="1"/></g></g><g clip-path="url(#clippath42)"><g transform="translate(454.6574 660.9956)"><path d="M 0 0 C 0.252 0.498 0.485 1.088 0.677 1.78 C 0.87 2.472 1.001 3.248 1.003 4.082 C 1.009 4.503 1.001 4.932 0.959 5.344 C 0.923 5.759 0.85 6.156 0.783 6.552 C 0.72 6.951 0.639 7.334 0.549 7.695 C 0.454 8.053 0.362 8.397 0.276 8.72 C 0.106 9.366 -0.098 9.893 -0.226 10.278 C -0.353 10.663 -0.446 10.885 -0.446 10.885 C -0.446 10.885 -0.609 10.785 -0.864 10.583 C -1.118 10.381 -1.464 10.077 -1.827 9.663 C -2.009 9.456 -2.194 9.221 -2.375 8.957 C -2.548 8.697 -2.714 8.408 -2.864 8.089 C -3.014 7.769 -3.147 7.42 -3.254 7.039 C -3.308 6.849 -3.354 6.65 -3.394 6.444 C -3.434 6.236 -3.465 6.022 -3.476 5.806 C -3.607 4.054 -3.055 2.148 -2.381 0.76 C -2.051 0.062 -1.727 -0.532 -1.454 -0.924 C -1.191 -1.325 -1.019 -1.555 -1.019 -1.555 C -1.019 -1.555 -0.887 -1.415 -0.695 -1.15 C -0.502 -0.885 -0.249 -0.495 0 0" fill="#101010" fill-opacity="1"/></g></g><g clip-path="url(#clippath42)"><g transform="translate(449.94 658.5496)"><path d="M 0 0 C 0.749 -0.043 1.425 0.06 1.969 0.191 C 2.517 0.326 2.948 0.503 3.244 0.644 C 3.539 0.785 3.699 0.891 3.699 0.891 C 3.699 0.891 3.504 1.102 3.158 1.436 C 2.801 1.762 2.331 2.243 1.744 2.765 C 0.557 3.8 -0.958 5.105 -2.651 5.964 C -2.867 6.068 -3.071 6.169 -3.273 6.26 C -3.475 6.351 -3.676 6.433 -3.874 6.506 C -4.271 6.653 -4.658 6.765 -5.03 6.85 C -5.401 6.934 -5.758 6.992 -6.094 7.028 C -6.423 7.068 -6.732 7.086 -7.016 7.089 C -7.585 7.096 -8.053 7.042 -8.378 6.984 C -8.703 6.927 -8.886 6.866 -8.886 6.866 C -8.886 6.866 -8.726 6.573 -8.434 6.1 C -8.141 5.629 -7.674 4.999 -7.118 4.303 C -6.976 4.13 -6.835 3.95 -6.673 3.776 C -6.512 3.602 -6.345 3.427 -6.172 3.252 C -5.826 2.902 -5.457 2.553 -5.072 2.22 C -4.683 1.89 -4.255 1.59 -3.828 1.313 C -3.396 1.04 -2.964 0.789 -2.509 0.596 C -1.591 0.215 -0.748 0.044 0 0" fill="#101010" fill-opacity="1"/></g></g><g clip-path="url(#clippath42)"><g transform="translate(449.4539 668.9694)"><path d="M 0 0 C 0.354 0.431 0.728 0.967 1.056 1.595 C 1.221 1.911 1.367 2.245 1.507 2.609 C 1.652 2.975 1.778 3.363 1.877 3.773 C 1.979 4.185 2.036 4.594 2.09 5.006 C 2.149 5.421 2.183 5.831 2.197 6.23 C 2.204 6.429 2.206 6.625 2.203 6.818 C 2.2 7.01 2.211 7.205 2.208 7.391 C 2.207 7.765 2.191 8.121 2.166 8.451 C 2.155 8.616 2.135 8.773 2.127 8.927 C 2.119 9.08 2.109 9.226 2.098 9.364 C 2.076 9.639 2.049 9.88 2.022 10.08 C 1.97 10.48 1.922 10.715 1.922 10.715 C 1.922 10.715 1.74 10.652 1.45 10.511 C 1.159 10.37 0.759 10.15 0.321 9.827 C -0.118 9.503 -0.594 9.076 -1.035 8.516 C -1.252 8.237 -1.475 7.921 -1.653 7.575 C -1.832 7.229 -1.992 6.846 -2.123 6.425 C -2.249 6.004 -2.357 5.558 -2.405 5.115 C -2.452 4.672 -2.471 4.221 -2.467 3.774 C -2.465 3.55 -2.457 3.328 -2.445 3.107 C -2.429 2.888 -2.399 2.676 -2.371 2.465 C -2.312 2.044 -2.239 1.638 -2.161 1.258 C -2.089 0.876 -1.981 0.533 -1.886 0.223 C -1.79 -0.086 -1.697 -0.359 -1.616 -0.585 C -1.536 -0.811 -1.467 -0.991 -1.418 -1.113 C -1.372 -1.237 -1.337 -1.299 -1.337 -1.299 C -1.337 -1.299 -1.179 -1.192 -0.936 -0.976 C -0.689 -0.759 -0.354 -0.431 0 0" fill="#101010" fill-opacity="1"/></g></g><g clip-path="url(#clippath42)"><g transform="translate(443.1866 668.0272)"><path d="M 0 0 C 0.388 -0.185 0.777 -0.318 1.141 -0.418 C 1.873 -0.617 2.536 -0.674 3.096 -0.663 C 3.656 -0.652 4.112 -0.575 4.43 -0.502 C 4.751 -0.427 4.93 -0.357 4.93 -0.357 C 4.93 -0.357 4.889 -0.298 4.824 -0.184 C 4.757 -0.07 4.658 0.093 4.529 0.296 C 4.4 0.499 4.242 0.741 4.055 1.01 C 3.87 1.28 3.649 1.573 3.432 1.898 C 3.209 2.219 2.961 2.558 2.69 2.904 C 2.552 3.075 2.411 3.25 2.269 3.426 C 2.131 3.605 1.988 3.784 1.839 3.962 C 1.542 4.318 1.223 4.67 0.884 5.007 C 0.544 5.344 0.216 5.678 -0.151 5.979 C -0.514 6.282 -0.88 6.544 -1.244 6.771 C -1.608 6.997 -1.945 7.196 -2.288 7.36 C -2.968 7.69 -3.614 7.899 -4.174 8.028 C -4.733 8.157 -5.206 8.205 -5.538 8.219 C -5.871 8.234 -6.061 8.214 -6.061 8.214 C -6.061 8.214 -5.962 7.895 -5.768 7.373 C -5.671 7.112 -5.55 6.8 -5.405 6.453 C -5.333 6.279 -5.255 6.097 -5.171 5.908 C -5.087 5.718 -4.983 5.527 -4.881 5.328 C -4.672 4.931 -4.441 4.514 -4.187 4.094 C -4.058 3.885 -3.933 3.671 -3.785 3.465 C -3.638 3.259 -3.485 3.053 -3.328 2.851 C -3.013 2.446 -2.678 2.053 -2.327 1.688 C -1.969 1.325 -1.573 0.999 -1.176 0.709 C -0.777 0.42 -0.383 0.187 0 0" fill="#101010" fill-opacity="1"/></g></g><g clip-path="url(#clippath42)"><g transform="translate(446.1109 677.8832)"><path d="M 0 0 C 0.217 0.171 0.444 0.366 0.672 0.586 C 0.899 0.806 1.144 1.054 1.375 1.325 C 1.844 1.87 2.28 2.514 2.644 3.269 C 2.839 3.648 3.003 4.038 3.141 4.428 C 3.283 4.818 3.38 5.207 3.5 5.595 C 3.611 5.981 3.699 6.36 3.77 6.724 C 3.802 6.906 3.834 7.085 3.866 7.259 C 3.902 7.433 3.935 7.603 3.963 7.766 C 4.021 8.094 4.063 8.398 4.094 8.671 C 4.107 8.807 4.12 8.936 4.132 9.055 C 4.144 9.174 4.162 9.285 4.173 9.386 C 4.222 9.787 4.233 10.027 4.233 10.027 C 4.233 10.027 4.042 10.006 3.726 9.932 C 3.41 9.858 2.967 9.731 2.463 9.512 C 1.437 9.073 0.235 8.264 -0.679 6.729 C -0.89 6.347 -1.069 5.938 -1.222 5.515 C -1.298 5.304 -1.368 5.089 -1.431 4.872 L -1.522 4.545 C -1.544 4.436 -1.567 4.327 -1.589 4.219 C -1.672 3.783 -1.733 3.347 -1.776 2.921 C -1.798 2.709 -1.816 2.499 -1.829 2.294 C -1.834 2.091 -1.834 1.892 -1.832 1.699 C -1.829 1.314 -1.814 0.952 -1.794 0.628 C -1.775 0.303 -1.751 0.015 -1.71 -0.22 C -1.639 -0.694 -1.579 -0.975 -1.579 -0.975 C -1.579 -0.975 -1.4 -0.904 -1.114 -0.746 C -0.828 -0.588 -0.434 -0.342 0 0" fill="#101010" fill-opacity="1"/></g></g><g clip-path="url(#clippath42)"><g transform="translate(440.8085 677.6719)"><path d="M 0 0 C 0.333 -0.178 0.649 -0.319 0.965 -0.426 C 1.28 -0.533 1.58 -0.61 1.857 -0.665 C 2.412 -0.774 2.878 -0.797 3.206 -0.795 C 3.534 -0.792 3.724 -0.763 3.724 -0.763 C 3.724 -0.763 3.636 -0.491 3.46 -0.042 C 3.367 0.181 3.272 0.453 3.156 0.758 C 3.04 1.063 2.903 1.402 2.746 1.762 C 2.667 1.942 2.583 2.128 2.494 2.318 C 2.413 2.51 2.329 2.706 2.239 2.905 C 2.059 3.303 1.858 3.713 1.635 4.123 C 1.578 4.226 1.521 4.328 1.464 4.431 L 1.299 4.741 C 1.187 4.947 1.069 5.152 0.945 5.354 C 0.697 5.759 0.425 6.154 0.127 6.528 C -0.989 8.029 -2.329 8.913 -3.336 9.411 C -3.848 9.66 -4.294 9.811 -4.613 9.898 C -4.932 9.985 -5.123 10.008 -5.123 10.008 C -5.123 10.008 -5.104 9.674 -5.04 9.121 C -5.023 8.983 -5.009 8.831 -4.982 8.668 C -4.951 8.505 -4.919 8.33 -4.884 8.144 C -4.811 7.774 -4.722 7.364 -4.616 6.93 C -4.562 6.713 -4.504 6.49 -4.441 6.263 C -4.375 6.036 -4.293 5.806 -4.211 5.574 C -4.045 5.109 -3.858 4.636 -3.649 4.17 C -3.45 3.703 -3.183 3.25 -2.913 2.818 C -2.639 2.385 -2.343 1.976 -2.024 1.606 C -1.362 0.869 -0.658 0.357 0 0" fill="#101010" fill-opacity="1"/></g></g><g clip-path="url(#clippath42)"><g transform="translate(444.7993 687.3085)"><path d="M 0 0 C 0.504 0.239 1.07 0.563 1.634 0.991 C 1.919 1.206 2.19 1.446 2.476 1.714 C 2.763 1.983 3.043 2.28 3.308 2.608 C 3.575 2.937 3.804 3.281 4.025 3.631 C 4.257 3.981 4.463 4.338 4.647 4.692 C 4.996 5.402 5.333 6.096 5.571 6.714 C 5.796 7.335 6.014 7.868 6.136 8.254 C 6.263 8.639 6.321 8.872 6.321 8.872 C 6.321 8.872 6.131 8.893 5.808 8.889 C 5.484 8.885 5.027 8.856 4.491 8.751 C 3.954 8.645 3.339 8.462 2.698 8.143 C 2.538 8.064 2.375 7.976 2.213 7.878 C 2.057 7.78 1.901 7.672 1.745 7.554 C 1.434 7.318 1.124 7.04 0.824 6.714 C -0.386 5.414 -1.072 3.567 -1.417 2.06 C -1.516 1.683 -1.569 1.328 -1.612 1.007 C -1.657 0.686 -1.689 0.399 -1.712 0.16 C -1.758 -0.317 -1.768 -0.605 -1.768 -0.605 C -1.768 -0.605 -1.578 -0.575 -1.262 -0.483 C -0.946 -0.392 -0.504 -0.239 0 0" fill="#101010" fill-opacity="1"/></g></g><g clip-path="url(#clippath42)"><g transform="translate(437.3447 691.6547)"><path d="M 0 0 C 0.172 -0.481 0.387 -0.946 0.623 -1.378 C 0.861 -1.81 1.118 -2.189 1.384 -2.522 C 1.651 -2.855 1.951 -3.141 2.236 -3.388 C 2.814 -3.881 3.39 -4.215 3.901 -4.445 C 4.413 -4.674 4.859 -4.798 5.177 -4.868 C 5.496 -4.937 5.686 -4.951 5.686 -4.951 C 5.686 -4.951 5.668 -4.665 5.607 -4.189 C 5.576 -3.95 5.536 -3.664 5.481 -3.341 C 5.426 -3.018 5.355 -2.658 5.298 -2.272 C 5.234 -1.886 5.154 -1.474 5.057 -1.045 C 5.008 -0.831 4.954 -0.613 4.897 -0.393 C 4.85 -0.172 4.797 0.051 4.739 0.275 C 4.509 1.172 4.178 2.095 3.802 2.949 C 3.605 3.378 3.387 3.77 3.157 4.13 C 3.042 4.31 2.924 4.482 2.803 4.646 C 2.689 4.808 2.574 4.963 2.456 5.11 C 1.985 5.697 1.492 6.161 1.042 6.515 C 0.593 6.869 0.187 7.114 -0.107 7.268 C -0.401 7.422 -0.582 7.486 -0.582 7.486 C -0.582 7.486 -0.631 7.156 -0.681 6.603 C -0.726 6.049 -0.798 5.276 -0.749 4.379 C -0.713 3.485 -0.646 2.482 -0.406 1.479 C -0.295 0.978 -0.161 0.48 0 0" fill="#101010" fill-opacity="1"/></g></g><g clip-path="url(#clippath42)"><g transform="translate(445.587 696.7958)"><path d="M 0 0 C 0.542 0.124 1.152 0.32 1.798 0.616 C 2.455 0.91 3.136 1.305 3.781 1.837 C 4.11 2.101 4.432 2.382 4.722 2.678 C 5.018 2.971 5.272 3.283 5.544 3.584 C 6.072 4.191 6.495 4.815 6.886 5.357 C 7.075 5.631 7.239 5.89 7.381 6.125 C 7.531 6.356 7.664 6.561 7.767 6.734 C 7.976 7.08 8.083 7.294 8.083 7.294 C 8.083 7.294 7.902 7.356 7.586 7.422 C 7.269 7.489 6.816 7.561 6.269 7.575 C 5.722 7.589 5.079 7.545 4.384 7.374 C 3.706 7.195 2.979 6.888 2.243 6.385 C 1.881 6.132 1.554 5.835 1.234 5.517 C 0.922 5.197 0.606 4.859 0.353 4.498 C -0.167 3.779 -0.627 3.024 -0.938 2.32 C -1.101 1.97 -1.244 1.637 -1.367 1.336 C -1.487 1.034 -1.566 0.758 -1.639 0.53 C -1.78 0.072 -1.848 -0.208 -1.848 -0.208 C -1.848 -0.208 -1.656 -0.22 -1.329 -0.199 C -1.002 -0.178 -0.54 -0.125 0 0" fill="#101010" fill-opacity="1"/></g></g><g clip-path="url(#clippath42)"><g transform="translate(439.162 704.184)"><path d="M 0 0 C -0.016 -0.507 0.033 -1.03 0.092 -1.535 C 0.158 -2.042 0.245 -2.535 0.384 -3.008 C 0.677 -3.956 1.083 -4.714 1.527 -5.317 C 1.982 -5.922 2.484 -6.376 2.935 -6.711 C 3.389 -7.047 3.8 -7.266 4.097 -7.403 C 4.394 -7.541 4.577 -7.596 4.577 -7.596 C 4.577 -7.596 4.616 -7.312 4.652 -6.832 C 4.667 -6.591 4.685 -6.302 4.706 -5.976 C 4.732 -5.651 4.755 -5.287 4.769 -4.894 C 4.78 -4.105 4.821 -3.218 4.766 -2.286 C 4.731 -1.817 4.72 -1.351 4.661 -0.878 C 4.61 -0.407 4.523 0.069 4.422 0.53 C 4.231 1.448 3.927 2.248 3.578 2.931 C 3.246 3.607 2.868 4.166 2.507 4.609 C 2.146 5.053 1.803 5.379 1.551 5.593 C 1.298 5.808 1.134 5.91 1.134 5.91 C 1.134 5.91 1.014 5.598 0.843 5.068 C 0.758 4.803 0.657 4.485 0.56 4.121 C 0.471 3.755 0.38 3.345 0.295 2.906 C 0.112 2.033 0.016 1.02 0 0" fill="#101010" fill-opacity="1"/></g></g><g clip-path="url(#clippath42)"><g transform="translate(447.0577 705.9867)"><path d="M 0 0 C 0.324 -0.051 0.788 -0.099 1.342 -0.095 C 1.899 -0.092 2.54 -0.034 3.233 0.115 C 3.938 0.258 4.688 0.495 5.432 0.871 C 6.966 1.602 8.237 2.728 9.229 3.619 C 9.474 3.844 9.682 4.067 9.882 4.257 C 10.082 4.448 10.252 4.622 10.391 4.769 C 10.668 5.062 10.819 5.248 10.819 5.248 C 10.819 5.248 10.656 5.347 10.362 5.482 C 10.068 5.616 9.642 5.785 9.112 5.918 C 8.583 6.051 7.948 6.148 7.234 6.133 C 6.521 6.117 5.756 5.968 4.928 5.639 C 4.509 5.478 4.132 5.255 3.75 5.016 C 3.376 4.771 2.998 4.509 2.667 4.215 C 2.005 3.627 1.389 2.991 0.933 2.371 C 0.697 2.065 0.486 1.772 0.301 1.504 C 0.119 1.234 -0.021 0.984 -0.142 0.777 C -0.381 0.361 -0.509 0.104 -0.509 0.104 C -0.509 0.104 -0.324 0.051 0 0" fill="#101010" fill-opacity="1"/></g></g><g clip-path="url(#clippath42)"><g transform="translate(444.0706 708.9755)"><path d="M 0 0 C 0.313 -0.691 0.702 -1.242 1.07 -1.667 C 1.438 -2.092 1.791 -2.395 2.051 -2.593 C 2.311 -2.791 2.479 -2.885 2.479 -2.885 C 2.479 -2.885 2.579 -2.617 2.72 -2.157 C 2.793 -1.928 2.867 -1.646 2.96 -1.333 C 3.057 -1.022 3.158 -0.672 3.257 -0.291 C 3.439 0.477 3.675 1.332 3.823 2.256 C 3.897 2.718 3.984 3.177 4.03 3.653 C 4.084 4.123 4.096 4.612 4.109 5.077 C 4.124 6.015 3.99 6.871 3.813 7.604 C 3.637 8.337 3.388 8.968 3.132 9.48 C 2.876 9.993 2.613 10.387 2.413 10.652 C 2.213 10.917 2.076 11.052 2.076 11.052 C 2.076 11.052 1.891 10.773 1.61 10.292 C 1.47 10.052 1.305 9.761 1.128 9.43 C 0.95 9.099 0.781 8.712 0.601 8.303 C -0.135 6.675 -0.725 4.465 -0.611 2.507 C -0.533 1.515 -0.302 0.685 0 0" fill="#101010" fill-opacity="1"/></g></g><g clip-path="url(#clippath42)"><g transform="translate(453.1329 714.1477)"><path d="M 0 0 C 1.075 -0.229 2.578 -0.357 4.206 0.042 C 5.039 0.227 5.804 0.546 6.545 0.866 C 6.912 1.028 7.248 1.215 7.583 1.384 C 7.917 1.554 8.228 1.728 8.512 1.899 C 8.653 1.986 8.789 2.069 8.919 2.149 C 9.052 2.227 9.177 2.302 9.295 2.375 C 9.529 2.52 9.732 2.655 9.898 2.769 C 10.228 3.001 10.425 3.14 10.425 3.14 C 10.425 3.14 10.287 3.273 10.028 3.471 C 9.768 3.668 9.385 3.93 8.901 4.172 C 8.414 4.415 7.818 4.646 7.12 4.784 C 6.773 4.85 6.391 4.904 6.001 4.906 C 5.611 4.91 5.197 4.88 4.76 4.806 C 3.877 4.669 3.043 4.317 2.238 3.915 C 1.843 3.706 1.475 3.468 1.12 3.231 C 0.766 2.992 0.43 2.75 0.141 2.497 C -0.445 1.997 -0.946 1.539 -1.258 1.177 C -1.58 0.822 -1.76 0.598 -1.76 0.598 C -1.76 0.598 -1.592 0.506 -1.287 0.386 C -0.982 0.265 -0.541 0.117 0 0" fill="#101010" fill-opacity="1"/></g></g><g clip-path="url(#clippath42)"><g transform="translate(450.2635 716.2457)"><path d="M 0 0 C 0.267 -0.497 0.546 -0.87 0.756 -1.121 C 0.967 -1.372 1.11 -1.5 1.11 -1.5 C 1.11 -1.5 1.265 -1.259 1.502 -0.84 C 1.728 -0.413 2.083 0.158 2.434 0.862 C 2.607 1.218 2.804 1.586 2.994 1.98 C 3.186 2.372 3.366 2.795 3.546 3.224 C 3.922 4.065 4.222 5.001 4.447 5.909 C 4.553 6.368 4.621 6.813 4.659 7.239 C 4.696 7.666 4.719 8.057 4.71 8.438 C 4.695 9.194 4.587 9.866 4.448 10.423 C 4.307 10.983 4.14 11.421 4.004 11.72 C 3.868 12.02 3.764 12.182 3.764 12.182 C 3.764 12.182 3.514 11.962 3.141 11.547 C 2.954 11.341 2.732 11.092 2.489 10.805 C 2.367 10.662 2.24 10.509 2.11 10.348 C 1.98 10.187 1.855 10.009 1.724 9.827 C 1.464 9.463 1.197 9.069 0.936 8.654 C 0.675 8.239 0.444 7.78 0.219 7.322 C -0.235 6.41 -0.556 5.4 -0.72 4.437 C -1.013 2.475 -0.542 0.998 0 0" fill="#101010" fill-opacity="1"/></g></g><g clip-path="url(#clippath42)"><g transform="translate(459.5586 721.1711)"><path d="M 0 0 C 0.497 -0.226 1.117 -0.465 1.809 -0.629 C 2.505 -0.796 3.268 -0.881 4.122 -0.882 C 4.545 -0.878 4.962 -0.84 5.37 -0.782 C 5.787 -0.736 6.193 -0.666 6.582 -0.58 C 6.777 -0.538 6.966 -0.488 7.155 -0.442 C 7.346 -0.399 7.532 -0.353 7.712 -0.304 C 8.073 -0.207 8.412 -0.1 8.725 0.008 C 9.366 0.197 9.895 0.402 10.269 0.556 C 10.65 0.696 10.869 0.795 10.869 0.795 C 10.869 0.795 10.763 0.955 10.553 1.203 C 10.343 1.451 10.028 1.787 9.602 2.136 C 9.173 2.491 8.646 2.835 7.996 3.119 C 7.349 3.397 6.571 3.625 5.697 3.653 C 5.258 3.671 4.807 3.652 4.358 3.6 C 3.917 3.536 3.476 3.441 3.044 3.326 C 2.829 3.267 2.613 3.207 2.405 3.137 C 2.2 3.064 1.998 2.986 1.801 2.906 C 1.406 2.747 1.03 2.577 0.68 2.408 C 0.002 2.046 -0.572 1.69 -0.972 1.425 C -1.361 1.146 -1.583 0.964 -1.583 0.964 C -1.583 0.964 -1.44 0.837 -1.169 0.654 C -0.898 0.471 -0.501 0.231 0 0" fill="#101010" fill-opacity="1"/></g></g><g clip-path="url(#clippath42)"><g transform="translate(457.2161 723.8447)"><path d="M 0 0 C 0.154 -0.545 0.345 -0.971 0.496 -1.262 C 0.648 -1.553 0.759 -1.71 0.759 -1.71 C 0.759 -1.71 0.962 -1.507 1.281 -1.146 C 1.612 -0.798 2.068 -0.301 2.562 0.313 C 2.819 0.607 3.087 0.93 3.356 1.276 C 3.49 1.449 3.625 1.629 3.758 1.814 C 3.894 1.995 4.034 2.176 4.169 2.365 C 4.439 2.741 4.701 3.138 4.943 3.551 C 5.193 3.951 5.426 4.366 5.627 4.795 C 6.023 5.663 6.287 6.457 6.433 7.206 C 6.581 7.95 6.616 8.638 6.607 9.201 C 6.595 9.77 6.525 10.236 6.457 10.559 C 6.389 10.882 6.323 11.062 6.323 11.062 C 6.323 11.062 6.035 10.894 5.572 10.587 C 5.118 10.266 4.494 9.794 3.816 9.217 C 2.487 8.016 0.971 6.337 0.268 4.478 C -0.102 3.573 -0.23 2.704 -0.247 1.952 C -0.26 1.196 -0.158 0.549 0 0" fill="#101010" fill-opacity="1"/></g></g><g clip-path="url(#clippath42)"><g transform="translate(467.3631 726.6273)"><path d="M 0 0 C 0.443 -0.34 0.99 -0.697 1.629 -1.004 C 1.95 -1.161 2.288 -1.292 2.659 -1.427 C 3.028 -1.558 3.42 -1.67 3.832 -1.754 C 4.038 -1.795 4.245 -1.829 4.451 -1.856 C 4.657 -1.883 4.868 -1.915 5.075 -1.934 C 5.49 -1.975 5.9 -1.991 6.296 -1.987 C 6.697 -1.993 7.09 -1.992 7.461 -1.97 C 7.647 -1.959 7.828 -1.946 8.004 -1.93 C 8.179 -1.913 8.353 -1.908 8.519 -1.892 C 9.183 -1.842 9.738 -1.739 10.142 -1.693 C 10.543 -1.635 10.777 -1.584 10.777 -1.584 C 10.777 -1.584 10.709 -1.405 10.558 -1.118 C 10.407 -0.831 10.173 -0.435 9.834 -0.004 C 9.155 0.869 8.061 1.855 6.351 2.335 C 5.506 2.55 4.577 2.647 3.693 2.586 C 3.25 2.56 2.804 2.526 2.386 2.452 C 1.968 2.378 1.565 2.29 1.189 2.197 C 1.002 2.15 0.819 2.106 0.648 2.053 C 0.478 1.999 0.316 1.944 0.162 1.891 C -0.144 1.785 -0.414 1.684 -0.637 1.596 C -1.087 1.425 -1.339 1.289 -1.339 1.289 C -1.339 1.289 -1.226 1.134 -1.002 0.897 C -0.779 0.661 -0.444 0.342 0 0" fill="#101010" fill-opacity="1"/></g></g><g clip-path="url(#clippath42)"><g transform="translate(465.8641 728.4106)"><path d="M 0 0 C 0.085 -0.318 0.16 -0.495 0.16 -0.495 C 0.16 -0.495 0.398 -0.335 0.797 -0.067 C 0.996 0.068 1.232 0.234 1.495 0.429 C 1.626 0.528 1.765 0.632 1.909 0.742 C 2.055 0.849 2.207 0.962 2.364 1.078 C 2.677 1.313 3.007 1.574 3.342 1.858 C 3.678 2.141 4.032 2.422 4.375 2.738 C 5.057 3.379 5.749 4.037 6.324 4.8 C 7.49 6.276 8.016 7.77 8.242 8.88 C 8.354 9.439 8.388 9.91 8.391 10.241 C 8.395 10.572 8.369 10.763 8.369 10.763 C 8.369 10.763 8.052 10.658 7.534 10.455 C 7.013 10.263 6.307 9.92 5.52 9.499 C 5.325 9.391 5.121 9.284 4.92 9.159 C 4.719 9.033 4.516 8.901 4.311 8.764 C 3.903 8.489 3.489 8.198 3.093 7.874 C 2.7 7.542 2.321 7.19 1.969 6.823 C 1.794 6.637 1.623 6.454 1.466 6.256 C 1.31 6.057 1.162 5.854 1.024 5.649 C 0.75 5.238 0.53 4.836 0.357 4.445 C 0.181 4.058 0.063 3.661 -0.026 3.295 C -0.202 2.558 -0.237 1.893 -0.208 1.335 C -0.18 0.778 -0.085 0.319 0 0" fill="#101010" fill-opacity="1"/></g></g><g clip-path="url(#clippath42)"><g transform="translate(475.4252 730.858)"><path d="M 0 0 C 1.473 -0.085 3.389 -0.091 5.41 0.264 C 5.918 0.343 6.409 0.446 6.882 0.573 C 7 0.606 7.117 0.639 7.233 0.671 C 7.35 0.702 7.465 0.732 7.579 0.762 C 7.808 0.824 8.031 0.891 8.25 0.961 C 9.121 1.259 9.917 1.533 10.593 1.831 C 10.93 1.976 11.239 2.11 11.513 2.228 C 11.786 2.35 12.023 2.463 12.217 2.561 C 12.607 2.755 12.826 2.883 12.826 2.883 C 12.826 2.883 12.609 3.004 12.21 3.183 C 12.011 3.272 11.766 3.376 11.478 3.487 C 11.191 3.596 10.862 3.724 10.496 3.819 C 9.766 4.017 8.882 4.236 7.901 4.303 C 7.656 4.324 7.405 4.34 7.148 4.35 C 7.019 4.355 6.889 4.361 6.758 4.361 C 6.628 4.357 6.496 4.352 6.364 4.348 C 5.834 4.323 5.285 4.275 4.73 4.187 C 2.509 3.798 0.655 2.788 -0.577 1.905 C -1.194 1.455 -1.66 1.028 -1.978 0.73 C -2.295 0.433 -2.455 0.236 -2.455 0.236 C -2.455 0.236 -2.207 0.202 -1.775 0.142 C -1.342 0.085 -0.731 0.035 0 0" fill="#101010" fill-opacity="1"/></g></g><g clip-path="url(#clippath42)"><g transform="translate(497.74 641.9221)"><path d="M 0 0 C 0.076 0.319 0.208 0.765 0.423 1.276 C 0.638 1.789 0.935 2.357 1.336 2.943 C 1.737 3.541 2.241 4.146 2.872 4.693 C 3.189 4.957 3.518 5.24 3.858 5.476 C 4.196 5.717 4.543 5.932 4.888 6.125 C 5.232 6.333 5.573 6.527 5.905 6.695 C 6.235 6.868 6.56 7 6.86 7.149 C 7.46 7.44 7.987 7.647 8.366 7.782 C 8.741 7.933 8.968 8.013 8.968 8.013 C 8.968 8.013 8.998 7.824 9.011 7.498 C 9.024 7.173 9.019 6.712 8.942 6.165 C 8.866 5.616 8.71 5.009 8.422 4.361 C 8.278 4.038 8.101 3.708 7.882 3.376 C 7.772 3.211 7.652 3.045 7.521 2.88 C 7.389 2.72 7.245 2.566 7.089 2.412 C 6.778 2.104 6.432 1.818 6.065 1.555 C 5.882 1.426 5.695 1.29 5.501 1.182 C 5.307 1.071 5.111 0.966 4.912 0.866 C 4.514 0.666 4.11 0.487 3.712 0.328 C 3.314 0.173 2.92 0.065 2.548 -0.041 C 2.175 -0.143 1.823 -0.228 1.505 -0.298 C 1.187 -0.365 0.902 -0.397 0.665 -0.43 C 0.189 -0.491 -0.097 -0.51 -0.097 -0.51 C -0.097 -0.51 -0.077 -0.319 0 0" fill="#101010" fill-opacity="1"/></g></g><g clip-path="url(#clippath42)"><g transform="translate(498.2332 639.6442)"><path d="M 0 0 C -0.253 0.504 -0.399 0.946 -0.483 1.262 C -0.568 1.578 -0.591 1.768 -0.591 1.768 C -0.591 1.768 -0.304 1.758 0.175 1.712 C 0.414 1.686 0.702 1.655 1.028 1.619 C 1.352 1.591 1.715 1.552 2.104 1.5 C 2.493 1.451 2.91 1.372 3.341 1.305 C 3.772 1.241 4.22 1.16 4.675 1.058 C 4.902 1.008 5.131 0.951 5.361 0.889 C 5.591 0.825 5.818 0.777 6.046 0.71 C 6.501 0.583 6.954 0.429 7.393 0.246 C 7.612 0.155 7.823 0.055 8.025 -0.043 C 8.226 -0.136 8.419 -0.234 8.603 -0.336 C 8.972 -0.54 9.309 -0.759 9.616 -0.985 C 10.228 -1.433 10.72 -1.919 11.094 -2.343 C 11.47 -2.768 11.733 -3.158 11.901 -3.442 C 12.07 -3.725 12.142 -3.903 12.142 -3.903 C 12.142 -3.903 11.817 -3.978 11.267 -4.061 C 10.713 -4.128 9.934 -4.203 9.042 -4.235 C 8.597 -4.253 8.116 -4.223 7.626 -4.195 C 7.134 -4.161 6.629 -4.115 6.125 -4.036 C 5.618 -3.942 5.113 -3.824 4.624 -3.679 C 4.135 -3.528 3.664 -3.373 3.22 -3.14 C 2.332 -2.692 1.653 -2.164 1.134 -1.626 C 0.615 -1.074 0.253 -0.502 0 0" fill="#101010" fill-opacity="1"/></g></g><g clip-path="url(#clippath42)"><g transform="translate(488.6816 644.0547)"><path d="M 0 0 C 0.322 0.456 0.738 0.959 1.258 1.441 C 1.518 1.683 1.803 1.916 2.116 2.143 C 2.43 2.38 2.771 2.606 3.141 2.811 C 3.51 3.016 3.891 3.19 4.274 3.339 C 4.658 3.505 5.045 3.651 5.425 3.771 C 5.616 3.832 5.805 3.887 5.991 3.936 C 6.177 3.986 6.361 4.028 6.541 4.083 C 6.903 4.184 7.25 4.266 7.574 4.332 C 7.737 4.366 7.893 4.395 8.043 4.42 C 8.118 4.433 8.192 4.445 8.263 4.456 C 8.335 4.471 8.404 4.485 8.472 4.499 C 8.743 4.554 8.983 4.594 9.182 4.624 C 9.582 4.684 9.82 4.701 9.82 4.701 C 9.82 4.701 9.808 4.51 9.75 4.192 C 9.691 3.874 9.585 3.428 9.39 2.918 C 9.194 2.407 8.909 1.832 8.486 1.254 C 8.275 0.96 8.029 0.687 7.743 0.42 C 7.457 0.153 7.13 -0.105 6.758 -0.345 C 6.013 -0.845 5.159 -1.139 4.294 -1.38 C 4.078 -1.436 3.86 -1.498 3.646 -1.534 C 3.431 -1.571 3.217 -1.603 3.007 -1.631 C 2.585 -1.687 2.174 -1.726 1.787 -1.752 C 1.399 -1.786 1.041 -1.767 0.716 -1.76 C 0.393 -1.749 0.105 -1.732 -0.134 -1.714 C -0.613 -1.678 -0.898 -1.639 -0.898 -1.639 C -0.898 -1.639 -0.836 -1.457 -0.692 -1.161 C -0.548 -0.865 -0.322 -0.456 0 0" fill="#101010" fill-opacity="1"/></g></g><g clip-path="url(#clippath42)"><g transform="translate(488.5207 642.2073)"><path d="M 0 0 C 0.23 -0.07 0.505 -0.159 0.814 -0.268 C 1.124 -0.373 1.465 -0.514 1.835 -0.635 C 2.204 -0.764 2.597 -0.912 3.002 -1.081 C 3.205 -1.165 3.41 -1.254 3.618 -1.349 C 3.825 -1.445 4.037 -1.526 4.247 -1.624 C 5.092 -1.997 5.943 -2.493 6.721 -3.008 C 7.109 -3.275 7.459 -3.556 7.774 -3.844 C 8.089 -4.132 8.37 -4.43 8.619 -4.706 C 9.118 -5.27 9.491 -5.835 9.764 -6.338 C 10.037 -6.841 10.209 -7.283 10.311 -7.599 C 10.413 -7.914 10.445 -8.104 10.445 -8.104 C 10.445 -8.104 10.111 -8.096 9.555 -8.051 C 9.277 -8.028 8.945 -7.997 8.572 -7.952 C 8.478 -7.94 8.383 -7.928 8.284 -7.916 C 8.187 -7.898 8.086 -7.88 7.984 -7.862 C 7.779 -7.824 7.566 -7.782 7.347 -7.736 C 6.909 -7.643 6.446 -7.533 5.973 -7.402 C 5.737 -7.342 5.499 -7.258 5.261 -7.172 C 5.022 -7.086 4.784 -6.994 4.547 -6.897 C 4.073 -6.702 3.605 -6.488 3.16 -6.245 C 2.717 -5.984 2.296 -5.7 1.912 -5.392 C 1.527 -5.084 1.198 -4.767 0.916 -4.448 C 0.636 -4.119 0.405 -3.782 0.211 -3.457 C -0.175 -2.804 -0.405 -2.179 -0.543 -1.637 C -0.682 -1.094 -0.728 -0.633 -0.742 -0.308 C -0.756 0.018 -0.737 0.208 -0.737 0.208 C -0.737 0.208 -0.459 0.141 0 0" fill="#101010" fill-opacity="1"/></g></g><g clip-path="url(#clippath42)"><g transform="translate(507.6003 644.4254)"><path d="M 0 0 C 0.096 0.551 0.258 1.186 0.52 1.847 C 0.652 2.177 0.808 2.514 0.994 2.85 C 1.182 3.181 1.389 3.546 1.636 3.886 C 1.882 4.231 2.151 4.553 2.432 4.852 C 2.713 5.155 2.997 5.462 3.29 5.732 C 3.581 6.009 3.882 6.246 4.166 6.491 C 4.45 6.737 4.729 6.96 4.994 7.158 C 5.531 7.543 5.989 7.888 6.326 8.11 C 6.663 8.334 6.872 8.451 6.872 8.451 C 6.872 8.451 6.943 8.274 7.025 7.961 C 7.108 7.648 7.202 7.2 7.243 6.655 C 7.283 6.11 7.271 5.469 7.134 4.767 C 7.1 4.592 7.059 4.409 7.007 4.231 C 6.953 4.055 6.891 3.875 6.819 3.693 C 6.674 3.329 6.488 2.957 6.254 2.58 C 6.138 2.392 6.011 2.208 5.877 2.027 C 5.742 1.846 5.594 1.685 5.443 1.519 C 5.139 1.192 4.81 0.881 4.469 0.59 C 4.132 0.289 3.767 0.052 3.412 -0.185 C 3.055 -0.418 2.701 -0.63 2.363 -0.82 C 1.678 -1.173 1.055 -1.429 0.609 -1.606 C 0.385 -1.695 0.205 -1.76 0.078 -1.794 C -0.048 -1.831 -0.117 -1.851 -0.117 -1.851 C -0.117 -1.851 -0.139 -1.661 -0.133 -1.335 C -0.129 -1.006 -0.095 -0.555 0 0" fill="#101010" fill-opacity="1"/></g></g><g clip-path="url(#clippath42)"><g transform="translate(509.9067 639.6567)"><path d="M 0 0 C -0.628 0.422 -1.102 0.887 -1.458 1.317 C -1.813 1.743 -2.056 2.156 -2.207 2.445 C -2.359 2.737 -2.424 2.918 -2.424 2.918 C -2.424 2.918 -2.353 2.928 -2.222 2.947 C -2.091 2.961 -1.902 2.993 -1.665 3.031 C -1.19 3.104 -0.519 3.182 0.266 3.24 C 0.655 3.283 1.072 3.318 1.51 3.341 C 1.947 3.367 2.41 3.361 2.869 3.379 C 3.332 3.389 3.806 3.379 4.282 3.344 C 4.519 3.329 4.76 3.299 4.995 3.276 C 5.23 3.254 5.464 3.224 5.696 3.187 C 6.161 3.111 6.597 3.006 7.005 2.88 C 7.209 2.818 7.406 2.75 7.596 2.677 C 7.785 2.607 7.963 2.539 8.137 2.463 C 8.828 2.166 9.407 1.813 9.868 1.474 C 10.33 1.135 10.674 0.808 10.9 0.566 C 11.127 0.324 11.237 0.166 11.237 0.166 C 11.237 0.166 10.932 0.032 10.411 -0.164 C 9.889 -0.357 9.159 -0.627 8.282 -0.82 C 7.846 -0.924 7.381 -1.022 6.898 -1.106 C 6.415 -1.189 5.903 -1.227 5.393 -1.259 C 4.881 -1.283 4.37 -1.3 3.859 -1.258 C 3.347 -1.213 2.845 -1.138 2.367 -1.025 C 1.887 -0.909 1.458 -0.778 1.061 -0.592 C 0.666 -0.412 0.314 -0.211 0 0" fill="#101010" fill-opacity="1"/></g></g><g clip-path="url(#clippath42)"><g transform="translate(516.537 647.7065)"><path d="M 0 0 C -0.026 0.557 0.005 1.191 0.114 1.901 C 0.222 2.612 0.421 3.372 0.761 4.135 C 0.929 4.52 1.112 4.908 1.32 5.267 C 1.523 5.631 1.753 5.962 1.977 6.296 C 2.198 6.633 2.428 6.95 2.658 7.242 C 2.892 7.529 3.118 7.806 3.329 8.065 C 3.749 8.584 4.151 8.981 4.426 9.279 C 4.7 9.578 4.876 9.742 4.876 9.742 C 4.876 9.742 4.983 9.584 5.133 9.295 C 5.282 9.006 5.472 8.587 5.633 8.061 C 5.714 7.797 5.787 7.507 5.843 7.192 C 5.894 6.884 5.927 6.552 5.932 6.2 C 5.938 5.847 5.916 5.474 5.857 5.082 C 5.828 4.887 5.789 4.686 5.74 4.482 C 5.692 4.277 5.632 4.069 5.553 3.867 C 4.953 2.215 3.667 0.704 2.484 -0.284 C 1.896 -0.785 1.356 -1.194 0.946 -1.44 C 0.542 -1.697 0.291 -1.836 0.291 -1.836 C 0.291 -1.836 0.228 -1.655 0.161 -1.334 C 0.094 -1.013 0.023 -0.553 0 0" fill="#101010" fill-opacity="1"/></g></g><g clip-path="url(#clippath42)"><g transform="translate(519.8342 643.5394)"><path d="M 0 0 C -0.7 0.268 -1.275 0.639 -1.717 0.983 C -2.161 1.331 -2.482 1.669 -2.693 1.919 C -2.904 2.169 -3.006 2.331 -3.006 2.331 C -3.006 2.331 -2.743 2.444 -2.29 2.606 C -1.83 2.757 -1.204 3.002 -0.455 3.237 C 1.052 3.693 2.969 4.262 4.865 4.35 C 5.105 4.356 5.333 4.364 5.555 4.365 C 5.777 4.364 5.993 4.356 6.204 4.342 C 6.626 4.312 7.025 4.256 7.399 4.181 C 7.772 4.105 8.121 4.011 8.442 3.906 C 8.758 3.808 9.048 3.697 9.308 3.584 C 9.829 3.356 10.234 3.114 10.507 2.928 C 10.78 2.742 10.921 2.612 10.921 2.612 C 10.921 2.612 10.656 2.41 10.195 2.099 C 9.734 1.79 9.05 1.407 8.257 1.001 C 8.056 0.902 7.854 0.795 7.635 0.703 C 7.417 0.611 7.192 0.52 6.963 0.431 C 6.503 0.254 6.024 0.087 5.536 -0.058 C 5.046 -0.2 4.532 -0.297 4.03 -0.374 C 3.524 -0.446 3.027 -0.497 2.533 -0.487 C 1.539 -0.457 0.7 -0.267 0 0" fill="#101010" fill-opacity="1"/></g></g><g clip-path="url(#clippath42)"><g transform="translate(524.5557 652.8409)"><path d="M 0 0 C -0.146 0.539 -0.267 1.18 -0.308 1.888 C -0.329 2.244 -0.325 2.609 -0.303 2.998 C -0.285 3.391 -0.241 3.797 -0.162 4.211 C -0.086 4.628 0.029 5.024 0.15 5.423 C 0.266 5.826 0.404 6.214 0.555 6.582 C 0.63 6.767 0.709 6.947 0.79 7.121 C 0.872 7.295 0.942 7.477 1.021 7.646 C 1.176 7.987 1.336 8.305 1.495 8.595 C 1.572 8.742 1.655 8.876 1.726 9.013 C 1.796 9.149 1.865 9.278 1.932 9.399 C 2.065 9.641 2.188 9.85 2.294 10.022 C 2.506 10.365 2.647 10.559 2.647 10.559 C 2.647 10.559 2.787 10.427 2.994 10.18 C 3.2 9.932 3.475 9.567 3.742 9.092 C 4.009 8.617 4.268 8.032 4.44 7.34 C 4.524 6.997 4.597 6.617 4.617 6.229 C 4.639 5.839 4.627 5.425 4.573 4.987 C 4.516 4.551 4.432 4.1 4.293 3.677 C 4.154 3.253 3.986 2.835 3.799 2.428 C 3.705 2.225 3.607 2.025 3.505 1.829 C 3.401 1.636 3.286 1.455 3.174 1.274 C 2.947 0.914 2.714 0.574 2.487 0.26 C 2.264 -0.059 2.026 -0.327 1.811 -0.571 C 1.596 -0.813 1.4 -1.024 1.233 -1.197 C 1.067 -1.37 0.931 -1.505 0.836 -1.597 C 0.743 -1.691 0.686 -1.734 0.686 -1.734 C 0.686 -1.734 0.586 -1.571 0.452 -1.274 C 0.317 -0.975 0.146 -0.539 0 0" fill="#101010" fill-opacity="1"/></g></g><g clip-path="url(#clippath42)"><g transform="translate(529.8835 649.4085)"><path d="M 0 0 C -0.429 -0.009 -0.839 0.029 -1.212 0.087 C -1.961 0.206 -2.589 0.427 -3.095 0.667 C -3.601 0.906 -3.985 1.164 -4.245 1.362 C -4.507 1.562 -4.642 1.698 -4.642 1.698 C -4.642 1.698 -4.58 1.736 -4.474 1.813 C -4.367 1.889 -4.209 1.998 -4.008 2.13 C -3.808 2.262 -3.564 2.417 -3.283 2.586 C -3.003 2.756 -2.681 2.933 -2.35 3.14 C -2.015 3.341 -1.65 3.548 -1.261 3.752 C -1.064 3.852 -0.864 3.953 -0.662 4.056 C -0.463 4.162 -0.259 4.266 -0.051 4.368 C 0.366 4.57 0.802 4.76 1.25 4.928 C 1.698 5.097 2.135 5.266 2.593 5.39 C 3.048 5.517 3.489 5.605 3.914 5.663 C 4.339 5.72 4.728 5.763 5.108 5.772 C 5.863 5.794 6.539 5.719 7.102 5.607 C 7.665 5.494 8.116 5.344 8.424 5.221 C 8.733 5.097 8.899 5.001 8.899 5.001 C 8.899 5.001 8.678 4.751 8.286 4.354 C 8.091 4.156 7.852 3.922 7.578 3.665 C 7.441 3.536 7.294 3.402 7.14 3.264 C 6.986 3.126 6.812 2.993 6.638 2.854 C 6.285 2.578 5.903 2.293 5.499 2.014 C 5.295 1.876 5.094 1.733 4.874 1.606 C 4.655 1.478 4.432 1.353 4.205 1.233 C 3.752 0.993 3.285 0.773 2.815 0.584 C 2.34 0.4 1.845 0.265 1.364 0.163 C 0.881 0.064 0.426 0.013 0 0" fill="#101010" fill-opacity="1"/></g></g><g clip-path="url(#clippath42)"><g transform="translate(531.2637 659.5961)"><path d="M 0 0 C -0.128 0.245 -0.254 0.516 -0.372 0.81 C -0.489 1.104 -0.611 1.431 -0.71 1.773 C -0.914 2.463 -1.047 3.228 -1.069 4.066 C -1.091 4.492 -1.081 4.915 -1.046 5.327 C -1.015 5.741 -0.944 6.135 -0.894 6.538 C -0.836 6.936 -0.762 7.318 -0.676 7.679 C -0.632 7.859 -0.588 8.034 -0.545 8.206 C -0.506 8.38 -0.466 8.548 -0.425 8.709 C -0.343 9.031 -0.256 9.326 -0.172 9.587 C -0.129 9.717 -0.088 9.839 -0.05 9.953 C -0.012 10.067 0.017 10.176 0.048 10.272 C 0.169 10.658 0.257 10.881 0.257 10.881 C 0.257 10.881 0.422 10.783 0.68 10.586 C 0.938 10.389 1.29 10.091 1.66 9.684 C 2.415 8.863 3.179 7.632 3.382 5.857 C 3.417 5.422 3.413 4.976 3.378 4.528 C 3.361 4.303 3.336 4.079 3.305 3.855 L 3.254 3.52 C 3.23 3.411 3.205 3.303 3.181 3.195 C 3.078 2.763 2.954 2.34 2.819 1.935 C 2.752 1.732 2.682 1.533 2.61 1.341 C 2.53 1.154 2.449 0.972 2.368 0.797 C 2.207 0.447 2.045 0.124 1.894 -0.164 C 1.743 -0.453 1.603 -0.705 1.469 -0.903 C 1.209 -1.306 1.039 -1.537 1.039 -1.537 C 1.039 -1.537 0.906 -1.399 0.71 -1.137 C 0.513 -0.876 0.255 -0.49 0 0" fill="#101010" fill-opacity="1"/></g></g><g clip-path="url(#clippath42)"><g transform="translate(536.0118 657.2264)"><path d="M 0 0 C -0.376 -0.026 -0.722 -0.024 -1.055 0.008 C -1.386 0.04 -1.691 0.093 -1.966 0.157 C -2.517 0.284 -2.952 0.455 -3.25 0.592 C -3.548 0.729 -3.709 0.833 -3.709 0.833 C -3.709 0.833 -3.517 1.045 -3.172 1.382 C -2.996 1.547 -2.797 1.756 -2.567 1.987 C -2.335 2.218 -2.072 2.47 -1.78 2.734 C -1.634 2.866 -1.482 3.001 -1.322 3.138 C -1.17 3.279 -1.013 3.424 -0.849 3.568 C -0.521 3.857 -0.17 4.148 0.202 4.431 C 0.296 4.501 0.39 4.571 0.485 4.641 L 0.762 4.856 C 0.949 4.998 1.141 5.136 1.337 5.27 C 1.729 5.537 2.14 5.786 2.564 6.005 C 4.198 6.915 5.783 7.171 6.906 7.212 C 7.475 7.228 7.944 7.183 8.27 7.131 C 8.597 7.079 8.78 7.022 8.78 7.022 C 8.78 7.022 8.626 6.726 8.341 6.248 C 8.269 6.129 8.193 5.996 8.101 5.858 C 8.007 5.722 7.905 5.576 7.797 5.421 C 7.579 5.113 7.33 4.776 7.054 4.424 C 6.916 4.248 6.772 4.069 6.621 3.887 C 6.468 3.707 6.298 3.532 6.128 3.353 C 5.786 2.998 5.421 2.643 5.04 2.304 C 4.666 1.96 4.237 1.657 3.813 1.373 C 3.386 1.092 2.948 0.84 2.505 0.633 C 1.599 0.233 0.747 0.055 0 0" fill="#101010" fill-opacity="1"/></g></g><g clip-path="url(#clippath42)"><g transform="translate(536.3294 667.6519)"><path d="M 0 0 C -0.362 0.425 -0.745 0.953 -1.083 1.575 C -1.255 1.887 -1.403 2.217 -1.554 2.58 C -1.705 2.943 -1.839 3.328 -1.945 3.736 C -2.054 4.145 -2.121 4.554 -2.179 4.964 C -2.247 5.378 -2.289 5.788 -2.311 6.186 C -2.338 6.977 -2.36 7.748 -2.323 8.41 C -2.273 9.068 -2.253 9.644 -2.207 10.045 C -2.164 10.448 -2.121 10.685 -2.121 10.685 C -2.121 10.685 -1.939 10.626 -1.646 10.49 C -1.353 10.353 -0.947 10.139 -0.502 9.823 C -0.056 9.506 0.43 9.086 0.884 8.533 C 0.997 8.395 1.109 8.248 1.217 8.092 C 1.318 7.938 1.417 7.776 1.51 7.604 C 1.697 7.261 1.865 6.881 2.005 6.461 C 2.574 4.778 2.442 2.813 2.138 1.296 C 2.073 0.912 1.975 0.566 1.883 0.256 C 1.792 -0.055 1.704 -0.329 1.627 -0.557 C 1.473 -1.011 1.364 -1.277 1.364 -1.277 C 1.364 -1.277 1.203 -1.172 0.952 -0.959 C 0.702 -0.746 0.362 -0.425 0 0" fill="#101010" fill-opacity="1"/></g></g><g clip-path="url(#clippath42)"><g transform="translate(544.9111 668.5541)"><path d="M 0 0 C -0.354 -0.368 -0.742 -0.703 -1.134 -1 C -1.529 -1.297 -1.918 -1.537 -2.297 -1.731 C -2.678 -1.925 -3.068 -2.064 -3.43 -2.171 C -4.159 -2.384 -4.822 -2.452 -5.382 -2.451 C -5.942 -2.45 -6.4 -2.38 -6.719 -2.313 C -7.038 -2.245 -7.218 -2.18 -7.218 -2.18 C -7.218 -2.18 -7.083 -1.927 -6.832 -1.517 C -6.707 -1.313 -6.552 -1.068 -6.37 -0.796 C -6.187 -0.524 -5.974 -0.225 -5.764 0.104 C -5.546 0.429 -5.305 0.773 -5.04 1.123 C -4.908 1.298 -4.769 1.475 -4.626 1.653 C -4.493 1.834 -4.353 2.016 -4.209 2.196 C -3.63 2.92 -2.95 3.626 -2.256 4.25 C -1.9 4.56 -1.54 4.829 -1.183 5.062 C -1.004 5.179 -0.826 5.287 -0.649 5.387 C -0.478 5.488 -0.309 5.582 -0.141 5.667 C 0.529 6.01 1.169 6.23 1.724 6.368 C 2.28 6.507 2.75 6.563 3.081 6.583 C 3.413 6.603 3.604 6.587 3.604 6.587 C 3.604 6.587 3.513 6.266 3.332 5.741 C 3.145 5.218 2.894 4.483 2.481 3.685 C 2.081 2.885 1.608 1.998 0.977 1.182 C 0.671 0.771 0.344 0.372 0 0" fill="#101010" fill-opacity="1"/></g></g><g clip-path="url(#clippath42)"><g transform="translate(539.5064 676.626)"><path d="M 0 0 C -0.443 0.336 -0.919 0.765 -1.386 1.3 C -1.865 1.838 -2.323 2.478 -2.693 3.227 C -2.885 3.603 -3.063 3.992 -3.206 4.38 C -3.356 4.77 -3.459 5.158 -3.583 5.544 C -3.816 6.315 -3.946 7.057 -4.08 7.712 C -4.139 8.039 -4.183 8.343 -4.215 8.615 C -4.257 8.888 -4.294 9.129 -4.317 9.329 C -4.365 9.73 -4.376 9.97 -4.376 9.97 C -4.376 9.97 -4.186 9.952 -3.869 9.883 C -3.553 9.813 -3.11 9.693 -2.606 9.481 C -2.102 9.269 -1.533 8.965 -0.97 8.523 C -0.425 8.083 0.112 7.504 0.576 6.743 C 0.803 6.363 0.979 5.958 1.14 5.537 C 1.293 5.117 1.443 4.68 1.525 4.246 C 1.704 3.378 1.813 2.5 1.808 1.73 C 1.813 1.344 1.807 0.982 1.794 0.657 C 1.78 0.332 1.739 0.048 1.712 -0.19 C 1.653 -0.666 1.6 -0.948 1.6 -0.948 C 1.6 -0.948 1.42 -0.88 1.13 -0.727 C 0.841 -0.574 0.441 -0.335 0 0" fill="#101010" fill-opacity="1"/></g></g><g clip-path="url(#clippath42)"><g transform="translate(548.3983 680.7248)"><path d="M 0 0 C -0.194 -0.469 -0.453 -0.925 -0.714 -1.362 C -0.982 -1.797 -1.265 -2.211 -1.585 -2.585 C -2.242 -3.33 -2.923 -3.854 -3.575 -4.221 C -4.238 -4.587 -4.883 -4.794 -5.432 -4.914 C -5.983 -5.034 -6.448 -5.065 -6.775 -5.069 C -7.102 -5.072 -7.292 -5.047 -7.292 -5.047 C -7.292 -5.047 -7.211 -4.772 -7.047 -4.32 C -6.962 -4.094 -6.86 -3.823 -6.744 -3.517 C -6.635 -3.209 -6.507 -2.868 -6.358 -2.505 C -6.044 -1.781 -5.717 -0.955 -5.284 -0.127 C -5.06 0.286 -4.858 0.706 -4.611 1.113 C -4.37 1.522 -4.095 1.92 -3.815 2.299 C -3.263 3.058 -2.658 3.662 -2.06 4.141 C -1.479 4.621 -0.905 4.976 -0.393 5.232 C 0.118 5.488 0.564 5.645 0.883 5.737 C 1.201 5.828 1.392 5.854 1.392 5.854 C 1.392 5.854 1.374 5.521 1.312 4.967 C 1.28 4.69 1.242 4.359 1.182 3.988 C 1.112 3.617 1.027 3.206 0.924 2.771 C 0.733 1.9 0.404 0.936 0 0" fill="#101010" fill-opacity="1"/></g></g><g clip-path="url(#clippath42)"><g transform="translate(541.939 685.6104)"><path d="M 0 0 C -0.316 0.087 -0.759 0.233 -1.263 0.465 C -1.769 0.696 -2.33 1.012 -2.901 1.432 C -3.485 1.852 -4.072 2.376 -4.595 3.025 C -5.694 4.321 -6.391 5.87 -6.93 7.089 C -7.061 7.395 -7.158 7.683 -7.263 7.939 C -7.366 8.195 -7.451 8.424 -7.517 8.614 C -7.649 8.995 -7.71 9.227 -7.71 9.227 C -7.71 9.227 -7.521 9.251 -7.197 9.253 C -6.874 9.254 -6.417 9.234 -5.879 9.138 C -5.341 9.042 -4.724 8.869 -4.078 8.562 C -3.434 8.255 -2.798 7.805 -2.178 7.165 C -1.862 6.846 -1.61 6.488 -1.36 6.113 C -1.12 5.737 -0.882 5.343 -0.701 4.938 C -0.339 4.13 -0.039 3.297 0.123 2.545 C 0.212 2.169 0.285 1.815 0.343 1.495 C 0.398 1.175 0.423 0.889 0.449 0.65 C 0.496 0.173 0.506 -0.114 0.506 -0.114 C 0.506 -0.114 0.316 -0.087 0 0" fill="#101010" fill-opacity="1"/></g></g><g clip-path="url(#clippath42)"><g transform="translate(545.8898 687.1091)"><path d="M 0 0 C -0.57 -0.501 -1.15 -0.844 -1.66 -1.08 C -2.171 -1.317 -2.617 -1.448 -2.935 -1.522 C -3.254 -1.596 -3.444 -1.613 -3.444 -1.613 C -3.444 -1.613 -3.426 -1.327 -3.366 -0.85 C -3.338 -0.611 -3.29 -0.324 -3.246 0 C -3.207 0.323 -3.155 0.684 -3.089 1.071 C -2.94 1.847 -2.804 2.724 -2.559 3.627 C -2.437 4.079 -2.328 4.533 -2.175 4.985 C -2.031 5.437 -1.841 5.887 -1.662 6.317 C -1.291 7.178 -0.817 7.903 -0.354 8.499 C 0.107 9.095 0.593 9.568 1.036 9.93 C 1.48 10.293 1.882 10.544 2.173 10.704 C 2.464 10.863 2.645 10.93 2.645 10.93 C 2.645 10.93 2.699 10.6 2.758 10.046 C 2.787 9.769 2.818 9.436 2.843 9.061 C 2.87 8.686 2.865 8.265 2.861 7.818 C 2.864 6.031 2.495 3.774 1.587 2.035 C 1.108 1.163 0.556 0.501 0 0" fill="#101010" fill-opacity="1"/></g></g><g clip-path="url(#clippath42)"><g transform="translate(539.7501 695.5461)"><path d="M 0 0 C -1.074 0.233 -2.498 0.733 -3.818 1.765 C -4.502 2.276 -5.068 2.881 -5.612 3.477 C -5.881 3.776 -6.11 4.084 -6.346 4.376 C -6.581 4.668 -6.793 4.954 -6.982 5.227 C -7.074 5.363 -7.164 5.495 -7.25 5.622 C -7.34 5.747 -7.423 5.867 -7.5 5.982 C -7.654 6.211 -7.784 6.416 -7.888 6.589 C -8.094 6.936 -8.217 7.143 -8.217 7.143 C -8.217 7.143 -8.036 7.208 -7.719 7.282 C -7.401 7.355 -6.944 7.437 -6.403 7.458 C -5.859 7.481 -5.221 7.446 -4.528 7.285 C -4.184 7.203 -3.814 7.095 -3.458 6.938 C -3.1 6.781 -2.735 6.583 -2.367 6.337 C -1.618 5.849 -1.002 5.185 -0.433 4.488 C -0.159 4.136 0.079 3.768 0.305 3.406 C 0.53 3.043 0.737 2.684 0.897 2.334 C 1.226 1.638 1.495 1.015 1.631 0.557 C 1.779 0.101 1.85 -0.177 1.85 -0.177 C 1.85 -0.177 1.659 -0.192 1.332 -0.177 C 1.005 -0.161 0.542 -0.115 0 0" fill="#101010" fill-opacity="1"/></g></g><g clip-path="url(#clippath42)"><g transform="translate(543.228 696.281)"><path d="M 0 0 C -0.448 -0.343 -0.855 -0.569 -1.15 -0.712 C -1.445 -0.854 -1.628 -0.912 -1.628 -0.912 C -1.628 -0.912 -1.671 -0.629 -1.714 -0.149 C -1.746 0.333 -1.835 0.999 -1.866 1.786 C -1.877 2.181 -1.905 2.598 -1.917 3.035 C -1.931 3.471 -1.922 3.931 -1.91 4.395 C -1.907 5.317 -1.797 6.294 -1.628 7.214 C -1.537 7.676 -1.416 8.109 -1.277 8.513 C -1.135 8.918 -0.995 9.285 -0.83 9.628 C -0.506 10.311 -0.132 10.88 0.224 11.331 C 0.582 11.783 0.914 12.113 1.161 12.331 C 1.408 12.549 1.569 12.653 1.569 12.653 C 1.569 12.653 1.707 12.35 1.876 11.819 C 1.963 11.554 2.063 11.235 2.167 10.874 C 2.219 10.693 2.272 10.502 2.325 10.302 C 2.377 10.102 2.418 9.888 2.463 9.669 C 2.551 9.23 2.632 8.761 2.699 8.275 C 2.767 7.79 2.79 7.276 2.806 6.766 C 2.846 5.748 2.724 4.696 2.479 3.75 C 1.94 1.841 0.904 0.688 0 0" fill="#101010" fill-opacity="1"/></g></g><g clip-path="url(#clippath42)"><g transform="translate(536.7747 704.5886)"><path d="M 0 0 C -0.546 -0.002 -1.209 0.034 -1.908 0.17 C -2.611 0.302 -3.342 0.538 -4.12 0.888 C -4.505 1.066 -4.869 1.271 -5.218 1.492 C -5.579 1.705 -5.92 1.935 -6.24 2.173 C -6.401 2.292 -6.552 2.415 -6.705 2.535 C -6.862 2.652 -7.012 2.771 -7.157 2.889 C -7.447 3.126 -7.712 3.362 -7.953 3.589 C -8.459 4.026 -8.858 4.43 -9.135 4.723 C -9.425 5.007 -9.584 5.187 -9.584 5.187 C -9.584 5.187 -9.422 5.289 -9.129 5.429 C -8.835 5.569 -8.41 5.746 -7.878 5.89 C -7.341 6.038 -6.72 6.135 -6.011 6.127 C -5.306 6.115 -4.503 6.003 -3.695 5.67 C -3.287 5.506 -2.884 5.304 -2.496 5.072 C -2.12 4.833 -1.757 4.565 -1.41 4.282 C -1.238 4.141 -1.066 3.997 -0.905 3.848 C -0.748 3.697 -0.596 3.543 -0.449 3.389 C -0.155 3.082 0.119 2.773 0.368 2.475 C 0.838 1.866 1.216 1.307 1.472 0.9 C 1.711 0.486 1.84 0.229 1.84 0.229 C 1.84 0.229 1.656 0.172 1.334 0.116 C 1.012 0.06 0.552 0.005 0 0" fill="#101010" fill-opacity="1"/></g></g><g clip-path="url(#clippath42)"><g transform="translate(540.0084 706.0646)"><path d="M 0 0 C -0.364 -0.433 -0.714 -0.744 -0.971 -0.947 C -1.228 -1.15 -1.394 -1.247 -1.394 -1.247 C -1.394 -1.247 -1.495 -0.979 -1.638 -0.519 C -1.798 -0.066 -2.009 0.575 -2.208 1.337 C -2.322 1.711 -2.434 2.115 -2.536 2.542 C -2.588 2.755 -2.637 2.973 -2.682 3.197 C -2.732 3.418 -2.785 3.64 -2.83 3.868 C -2.922 4.322 -2.998 4.791 -3.049 5.267 C -3.113 5.735 -3.155 6.208 -3.162 6.682 C -3.167 7.636 -3.082 8.469 -2.907 9.211 C -2.737 9.951 -2.486 10.593 -2.246 11.103 C -2.002 11.616 -1.748 12.012 -1.553 12.279 C -1.358 12.546 -1.223 12.683 -1.223 12.683 C -1.223 12.683 -1.03 12.411 -0.734 11.941 C -0.452 11.461 -0.077 10.776 0.305 9.971 C 1.024 8.331 1.717 6.177 1.594 4.194 C 1.56 3.216 1.32 2.371 1.027 1.679 C 0.728 0.984 0.37 0.436 0 0" fill="#101010" fill-opacity="1"/></g></g><g clip-path="url(#clippath42)"><g transform="translate(531.8986 712.7679)"><path d="M 0 0 C -0.543 -0.129 -1.189 -0.229 -1.898 -0.247 C -2.255 -0.258 -2.617 -0.239 -3.01 -0.209 C -3.401 -0.177 -3.804 -0.118 -4.214 -0.025 C -4.419 0.021 -4.622 0.075 -4.82 0.136 C -5.02 0.196 -5.225 0.253 -5.422 0.321 C -5.817 0.453 -6.197 0.607 -6.557 0.773 C -6.925 0.932 -7.283 1.095 -7.612 1.267 C -7.777 1.353 -7.937 1.44 -8.09 1.527 C -8.243 1.614 -8.4 1.69 -8.545 1.772 C -9.13 2.091 -9.593 2.413 -9.943 2.621 C -10.284 2.837 -10.477 2.981 -10.477 2.981 C -10.477 2.981 -10.341 3.116 -10.086 3.316 C -9.83 3.515 -9.455 3.78 -8.969 4.034 C -7.991 4.551 -6.589 5.001 -4.833 4.737 C -3.974 4.586 -3.087 4.293 -2.306 3.874 C -1.912 3.668 -1.52 3.454 -1.169 3.215 C -0.818 2.976 -0.487 2.731 -0.182 2.492 C -0.031 2.372 0.118 2.256 0.252 2.138 C 0.385 2.019 0.511 1.903 0.628 1.791 C 0.864 1.569 1.069 1.366 1.236 1.194 C 1.576 0.854 1.75 0.625 1.75 0.625 C 1.75 0.625 1.584 0.531 1.282 0.407 C 0.982 0.283 0.545 0.13 0 0" fill="#101010" fill-opacity="1"/></g></g><g clip-path="url(#clippath42)"><g transform="translate(533.9976 713.7786)"><path d="M 0 0 C -0.208 -0.255 -0.349 -0.385 -0.349 -0.385 C -0.349 -0.385 -0.5 -0.142 -0.754 0.266 C -0.88 0.471 -1.027 0.719 -1.188 1.005 C -1.266 1.149 -1.349 1.301 -1.436 1.46 C -1.525 1.618 -1.617 1.783 -1.713 1.954 C -1.902 2.297 -2.096 2.67 -2.285 3.067 C -2.475 3.463 -2.682 3.864 -2.864 4.293 C -3.223 5.158 -3.584 6.042 -3.795 6.973 C -4.252 8.798 -4.119 10.376 -3.87 11.481 C -3.742 12.037 -3.579 12.48 -3.446 12.784 C -3.314 13.087 -3.212 13.25 -3.212 13.25 C -3.212 13.25 -2.966 13.025 -2.577 12.627 C -2.181 12.238 -1.678 11.635 -1.134 10.928 C -0.999 10.749 -0.858 10.568 -0.726 10.371 C -0.594 10.174 -0.463 9.971 -0.332 9.762 C -0.073 9.343 0.185 8.907 0.413 8.45 C 0.634 7.986 0.836 7.509 1.006 7.029 C 1.089 6.788 1.17 6.551 1.232 6.306 C 1.293 6.06 1.344 5.815 1.385 5.572 C 1.467 5.084 1.502 4.627 1.5 4.2 C 1.501 3.775 1.446 3.364 1.377 2.994 C 1.234 2.249 0.993 1.629 0.738 1.131 C 0.484 0.635 0.209 0.256 0 0" fill="#101010" fill-opacity="1"/></g></g><g clip-path="url(#clippath42)"><g transform="translate(526.2844 719.9357)"><path d="M 0 0 C -1.378 0.527 -3.128 1.309 -4.825 2.461 C -5.255 2.743 -5.661 3.038 -6.04 3.348 C -6.134 3.427 -6.227 3.505 -6.32 3.582 C -6.414 3.658 -6.506 3.733 -6.598 3.807 C -6.781 3.957 -6.957 4.11 -7.127 4.264 C -7.8 4.893 -8.413 5.469 -8.907 6.018 C -9.155 6.29 -9.382 6.538 -9.583 6.758 C -9.782 6.982 -9.951 7.183 -10.089 7.351 C -10.364 7.688 -10.511 7.895 -10.511 7.895 C -10.511 7.895 -10.264 7.916 -9.827 7.915 C -9.608 7.915 -9.342 7.909 -9.034 7.893 C -8.728 7.874 -8.375 7.855 -8.003 7.792 C -7.255 7.672 -6.359 7.509 -5.438 7.168 C -5.206 7.086 -4.97 6.997 -4.731 6.902 C -4.612 6.853 -4.491 6.805 -4.372 6.752 C -4.255 6.694 -4.137 6.636 -4.018 6.577 C -3.544 6.337 -3.064 6.068 -2.594 5.76 C -0.728 4.493 0.547 2.811 1.308 1.501 C 1.686 0.837 1.936 0.256 2.103 -0.146 C 2.271 -0.547 2.335 -0.793 2.335 -0.793 C 2.335 -0.793 2.095 -0.722 1.677 -0.599 C 1.258 -0.473 0.681 -0.268 0 0" fill="#101010" fill-opacity="1"/></g></g><g clip-path="url(#clippath42)"><g transform="translate(527.2728 671.2717)"><path d="M 0 0 L -72.729 15.619 L -72.563 16.393 L 0.166 0.774 Z" fill="#101010" fill-opacity="1"/></g></g><g clip-path="url(#clippath42)"><g transform="translate(505.2745 745.9771)"><path d="M 0 0 L 0.881 -3.496 L 4.261 -4.753 L 1.208 -6.671 L 1.058 -10.274 L -1.71 -7.963 L -5.183 -8.933 L -3.841 -5.587 L -5.837 -2.584 L -2.239 -2.826 Z" fill="#d1223e" fill-opacity="1"/></g></g><g clip-path="url(#clippath42)"><g transform="translate(488.8814 744.3624)"><path d="M 0 0 L 0.669 -2.655 L 3.236 -3.609 L 0.918 -5.066 L 0.803 -7.802 L -1.299 -6.048 L -3.936 -6.785 L -2.917 -4.243 L -4.433 -1.962 L -1.701 -2.146 Z" fill="#d1223e" fill-opacity="1"/></g></g><g clip-path="url(#clippath42)"><g transform="translate(519.5591 737.7741)"><path d="M 0 0 L -1.7 -2.146 L -4.433 -1.962 L -2.917 -4.243 L -3.936 -6.784 L -1.299 -6.048 L 0.803 -7.802 L 0.918 -5.066 L 3.236 -3.609 L 0.669 -2.655 Z" fill="#d1223e" fill-opacity="1"/></g></g><g transform=""><path d="M 463.808 665.901 L 508.648 656.271 L 511.305 668.641 L 466.464 678.271 Z" fill="none"/></g><g clip-path="url(#clippath43)"><g transform="matrix(44.8412453 -9.6299401 2.6565352 12.3699987 463.8074846 665.9008143)"><image x="0" y="-40" width="145px" height="40px" transform="scale(0.0068965517 -0.025)" id="InlineImageXObject_1132962918" data-checksum="23308" onload="this.setAttribute(&quot;complete&quot;,&quot;true&quot;)" href="images/InlineImageXObject_1132962918.webp"/></g></g><g transform=""><path d="M 0 792 L 612 792 L 612 0 L 0 0 Z" fill="none"/></g><g clip-path="url(#clippath44)"><g transform="translate(426.2951 671.3895)"><path d="M 0 0 L -1.049 -0.294 C -2.313 -0.647 -3.215 -0.204 -3.564 1.039 C -3.912 2.282 -3.37 3.129 -2.107 3.483 L 2 4.632 C 3.263 4.986 4.166 4.543 4.514 3.3 C 4.862 2.056 4.321 1.209 3.058 0.856 L 2.29 0.641 L 1.955 1.838 L 2.801 2.075 C 3.365 2.233 3.509 2.546 3.396 2.949 C 3.283 3.352 2.997 3.545 2.433 3.388 L -1.831 2.194 C -2.395 2.036 -2.528 1.726 -2.414 1.323 C -2.302 0.92 -2.028 0.724 -1.464 0.882 L -0.335 1.197 Z" fill="#231f20" fill-opacity="1"/></g></g><g clip-path="url(#clippath44)"><g transform="translate(426.754 668.6865)"><path d="M 0 0 L 0.444 -1.187 L 4.105 0.859 Z M -1.384 -3.722 L -1.849 -2.479 L -0.535 -1.745 L -1.101 -0.233 L -2.574 -0.541 L -2.997 0.59 L 5.151 2.207 L 5.826 0.404 Z" fill="#231f20" fill-opacity="1"/></g></g><g clip-path="url(#clippath44)"><g transform="translate(431.8403 665.0576)"><path d="M 0 0 L -5.361 -2.554 L -5.87 -1.485 L 1.532 2.041 L 2.241 0.551 L -1.608 -2.779 L 2.822 -0.669 L 3.326 -1.726 L -4.075 -5.252 L -4.656 -4.032 Z" fill="#231f20" fill-opacity="1"/></g></g><g clip-path="url(#clippath44)"><g transform="translate(431.5185 658.4027)"><path d="M 0 0 L 0.641 -1.094 L 3.899 1.549 Z M -0.726 -3.904 L -1.397 -2.759 L -0.228 -1.811 L -1.045 -0.418 L -2.443 -0.974 L -3.054 0.068 L 4.698 3.057 L 5.672 1.396 Z" fill="#231f20" fill-opacity="1"/></g></g><g clip-path="url(#clippath44)"><g transform="translate(438.1234 656.2056)"><path d="M 0 0 L -4.795 -3.365 L -4.369 -3.972 C -4.129 -4.314 -3.812 -4.399 -3.332 -4.062 L 0.158 -1.613 C 0.638 -1.277 0.666 -0.95 0.426 -0.607 Z M 0.204 1.75 L 1.399 0.046 C 2.154 -1.031 1.94 -1.97 0.866 -2.723 L -2.529 -5.105 C -3.603 -5.859 -4.559 -5.741 -5.314 -4.664 L -6.509 -2.961 Z" fill="#231f20" fill-opacity="1"/></g></g><g clip-path="url(#clippath44)"><g transform="translate(441.3469 653.7808)"><path d="M 0 0 L 0.819 -1.029 L -5.594 -6.136 L -6.413 -5.107 Z" fill="#231f20" fill-opacity="1"/></g></g><g clip-path="url(#clippath44)"><g transform="translate(439.614 647.1075)"><path d="M 0 0 L 0.848 -0.942 L 3.505 2.304 Z M 0.075 -3.97 L -0.812 -2.984 L 0.141 -1.82 L -0.939 -0.62 L -2.196 -1.447 L -3.004 -0.549 L 3.985 3.943 L 5.272 2.512 Z" fill="#231f20" fill-opacity="1"/></g></g><g clip-path="url(#clippath44)"><g transform="translate(445.6709 645.583)"><path d="M 0 0 L -4.082 -4.313 L -4.942 -3.499 L 0.694 2.455 L 1.892 1.321 L -0.499 -3.172 L 2.874 0.392 L 3.725 -0.413 L -1.91 -6.367 L -2.892 -5.439 Z" fill="#231f20" fill-opacity="1"/></g></g><g clip-path="url(#clippath44)"><g transform="translate(451.3837 638.9063)"><path d="M 0 0 L 1.47 -1.108 L -0.095 -3.185 C -0.885 -4.232 -1.871 -4.428 -2.901 -3.65 C -3.932 -2.873 -4.015 -1.872 -3.226 -0.824 L -0.66 2.58 C 0.13 3.628 1.116 3.824 2.146 3.047 C 3.177 2.269 3.261 1.268 2.471 0.22 L 1.992 -0.416 L 0.999 0.333 L 1.528 1.034 C 1.88 1.502 1.804 1.838 1.47 2.09 C 1.136 2.341 0.792 2.322 0.44 1.854 L -2.225 -1.681 C -2.578 -2.149 -2.495 -2.476 -2.161 -2.727 C -1.827 -2.979 -1.49 -2.969 -1.137 -2.502 L -0.228 -1.295 L -0.705 -0.935 Z" fill="#231f20" fill-opacity="1"/></g></g><g clip-path="url(#clippath44)"><g transform="translate(453.5312 634.1146)"><path d="M 0 0 C -0.317 -0.492 -0.216 -0.822 0.135 -1.049 C 0.487 -1.275 0.829 -1.231 1.146 -0.738 L 3.543 2.985 C 3.861 3.478 3.76 3.807 3.408 4.034 C 3.056 4.261 2.715 4.216 2.398 3.723 Z M 1.248 4.367 C 1.958 5.47 2.957 5.718 4.043 5.019 C 5.128 4.32 5.315 3.307 4.605 2.204 L 2.296 -1.381 C 1.585 -2.485 0.587 -2.733 -0.499 -2.034 C -1.585 -1.335 -1.772 -0.322 -1.061 0.781 Z" fill="#231f20" fill-opacity="1"/></g></g><g clip-path="url(#clippath44)"><g transform="translate(460.1554 637.4238)"><path d="M 0 0 L 1.152 -0.634 L -2.236 -6.792 L -0.341 -7.835 L -0.905 -8.862 L -3.953 -7.185 Z" fill="#231f20" fill-opacity="1"/></g></g><g clip-path="url(#clippath44)"><g transform="translate(463.6075 631.514)"><path d="M 0 0 L 1.537 -0.721 L 1.04 -1.781 L -0.498 -1.06 L -1.936 -4.124 L -3.126 -3.565 L 0.357 3.856 L 3.507 2.378 L 3.009 1.318 L 1.05 2.237 Z" fill="#231f20" fill-opacity="1"/></g></g><g clip-path="url(#clippath44)"><g transform="translate(470.8505 631.1731)"><path d="M 0 0 L -0.923 -2.617 L -0.337 -2.824 C 0.058 -2.964 0.334 -2.862 0.529 -2.31 L 0.938 -1.151 C 1.133 -0.598 0.981 -0.346 0.586 -0.207 Z M 2.15 -1.665 L 1.796 -2.671 C 1.36 -3.907 0.514 -4.366 -0.726 -3.929 L -1.312 -3.722 L -2.336 -6.626 L -3.576 -6.189 L -0.851 1.542 L 0.976 0.898 C 2.216 0.46 2.587 -0.428 2.15 -1.665" fill="#231f20" fill-opacity="1"/></g></g><g clip-path="url(#clippath44)"><g transform="translate(475.5123 629.675)"><path d="M 0 0 L -0.668 -2.429 L -0.172 -2.565 C 0.301 -2.695 0.645 -2.571 0.819 -1.938 L 1.033 -1.159 C 1.188 -0.594 1.061 -0.292 0.611 -0.168 Z M -0.48 -7.158 C -0.493 -6.935 -0.505 -6.798 -0.328 -6.154 L 0.014 -4.912 C 0.216 -4.178 0.036 -3.837 -0.54 -3.679 L -0.978 -3.558 L -1.863 -6.778 L -3.131 -6.429 L -0.957 1.478 L 0.956 0.952 C 2.27 0.591 2.671 -0.163 2.335 -1.383 L 2.165 -2.004 C 1.941 -2.817 1.53 -3.275 0.894 -3.38 C 1.456 -3.814 1.499 -4.47 1.272 -5.294 L 0.937 -6.514 C 0.832 -6.898 0.766 -7.184 0.812 -7.512 Z" fill="#231f20" fill-opacity="1"/></g></g><g clip-path="url(#clippath44)"><g transform="translate(479.3986 623.4247)"><path d="M 0 0 C -0.114 -0.574 0.1 -0.844 0.511 -0.925 C 0.921 -1.007 1.222 -0.84 1.337 -0.266 L 2.201 4.078 C 2.315 4.652 2.101 4.922 1.69 5.003 C 1.28 5.084 0.978 4.917 0.864 4.343 Z M -0.442 4.519 C -0.186 5.806 0.652 6.404 1.918 6.152 C 3.185 5.9 3.731 5.027 3.474 3.741 L 2.642 -0.442 C 2.386 -1.728 1.548 -2.326 0.282 -2.074 C -0.984 -1.823 -1.53 -0.95 -1.274 0.337 Z" fill="#231f20" fill-opacity="1"/></g></g><g clip-path="url(#clippath44)"><g transform="translate(485.4871 627.5906)"><path d="M 0 0 L -0.732 -5.809 L 0.003 -5.902 C 0.419 -5.954 0.694 -5.777 0.767 -5.196 L 1.3 -0.966 C 1.374 -0.385 1.151 -0.145 0.736 -0.092 Z M -1.158 1.326 L 0.906 1.066 C 2.211 0.902 2.762 0.112 2.598 -1.189 L 2.08 -5.302 C 1.916 -6.603 1.186 -7.231 -0.119 -7.067 L -2.184 -6.807 Z" fill="#231f20" fill-opacity="1"/></g></g><g clip-path="url(#clippath44)"><g transform="translate(490.6712 628.257)"><path d="M 0 0 L -0.329 -6.316 C -0.359 -6.901 -0.108 -7.126 0.31 -7.148 C 0.728 -7.17 1.002 -6.973 1.032 -6.388 L 1.361 -0.072 L 2.603 -0.137 L 2.278 -6.371 C 2.21 -7.681 1.502 -8.395 0.213 -8.327 C -1.076 -8.259 -1.706 -7.476 -1.638 -6.166 L -1.313 0.069 Z" fill="#231f20" fill-opacity="1"/></g></g><g clip-path="url(#clippath44)"><g transform="translate(498.3338 623.0405)"><path d="M 0 0 L 0.022 -1.089 C 0.047 -2.4 -0.607 -3.163 -1.898 -3.188 C -3.189 -3.214 -3.874 -2.478 -3.899 -1.167 L -3.984 3.095 C -4.01 4.406 -3.355 5.169 -2.064 5.195 C -0.773 5.22 -0.089 4.484 -0.063 3.173 L -0.047 2.377 L -1.29 2.352 L -1.308 3.23 C -1.319 3.816 -1.587 4.033 -2.005 4.024 C -2.424 4.016 -2.682 3.789 -2.671 3.203 L -2.583 -1.222 C -2.571 -1.808 -2.304 -2.013 -1.886 -2.005 C -1.467 -1.997 -1.208 -1.781 -1.22 -1.195 L -1.243 -0.025 Z" fill="#231f20" fill-opacity="1"/></g></g><g clip-path="url(#clippath44)"><g transform="translate(498.9058 628.2168)"><path d="M 0 0 L 4.05 0.363 L 4.154 -0.804 L 2.784 -0.927 L 3.41 -7.925 L 2.1 -8.043 L 1.474 -1.044 L 0.104 -1.167 Z" fill="#231f20" fill-opacity="1"/></g></g><g clip-path="url(#clippath44)"><g transform="translate(508.3633 623.0507)"><path d="M 0 0 C 0.113 -0.575 0.413 -0.743 0.824 -0.663 C 1.235 -0.582 1.45 -0.313 1.338 0.261 L 0.487 4.607 C 0.375 5.182 0.074 5.35 -0.337 5.27 C -0.748 5.19 -0.963 4.921 -0.85 4.346 Z M -2.126 4.013 C -2.377 5.301 -1.829 6.172 -0.562 6.42 C 0.706 6.667 1.542 6.067 1.794 4.779 L 2.613 0.594 C 2.865 -0.694 2.317 -1.565 1.049 -1.812 C -0.218 -2.06 -1.054 -1.46 -1.307 -0.172 Z" fill="#231f20" fill-opacity="1"/></g></g><g clip-path="url(#clippath44)"><g transform="translate(513.0698 626.8497)"><path d="M 0 0 L 1.639 0.443 L 1.944 -0.688 L 0.305 -1.131 L 1.187 -4.398 L -0.082 -4.741 L -2.219 3.173 L 1.14 4.081 L 1.445 2.95 L -0.644 2.386 Z" fill="#231f20" fill-opacity="1"/></g></g><g clip-path="url(#clippath44)"><g transform="translate(516.801 631.767)"><path d="M 0 0 L 3.796 1.452 L 4.214 0.358 L 2.93 -0.133 L 5.441 -6.697 L 4.213 -7.167 L 1.702 -0.603 L 0.418 -1.094 Z" fill="#231f20" fill-opacity="1"/></g></g><g clip-path="url(#clippath44)"><g transform="translate(526.0269 626.6806)"><path d="M 0 0 L -1.189 -0.562 L -4.692 6.851 L -3.503 7.413 L -2.001 4.236 L -0.65 4.874 L -2.151 8.051 L -0.941 8.624 L 2.562 1.211 L 1.352 0.639 L -0.15 3.815 L -1.501 3.177 Z" fill="#231f20" fill-opacity="1"/></g></g><g clip-path="url(#clippath44)"><g transform="translate(528.9907 633.5209)"><path d="M 0 0 L 1.567 0.897 L 2.149 -0.12 L 0.582 -1.017 L 1.775 -3.101 L 3.747 -1.972 L 4.329 -2.989 L 1.216 -4.771 L -2.858 2.346 L 0.254 4.128 L 0.836 3.111 L -1.135 1.983 Z" fill="#231f20" fill-opacity="1"/></g></g><g clip-path="url(#clippath44)"><g transform="translate(536.2117 635.7254)"><path d="M 0 0 L -4.582 3.438 L -3.472 4.251 L -0.453 1.832 L -1.852 5.438 L -0.839 6.18 L 1.061 0.778 L 2.667 -1.413 L 1.606 -2.191 Z" fill="#231f20" fill-opacity="1"/></g></g><g clip-path="url(#clippath44)"><g transform="translate(539.2016 640.6385)"><path d="M 0 0 L 1.367 1.179 L 2.132 0.292 L 0.765 -0.887 L 2.333 -2.705 L 4.054 -1.221 L 4.819 -2.108 L 2.103 -4.451 L -3.253 1.757 L -0.537 4.1 L 0.228 3.213 L -1.492 1.729 Z" fill="#231f20" fill-opacity="1"/></g></g><g clip-path="url(#clippath44)"><g transform="translate(544.287 642.4016)"><path d="M 0 0 L 0.89 0.902 L -2.51 3.362 Z M 3.959 0.312 L 3.028 -0.633 L 1.808 0.249 L 0.676 -0.901 L 1.576 -2.106 L 0.729 -2.966 L -4.174 3.743 L -2.823 5.113 Z" fill="#231f20" fill-opacity="1"/></g></g><g clip-path="url(#clippath44)"><g transform="translate(544.6827 649.3519)"><path d="M 0 0 L 1.94 -1.605 L 2.268 -1.209 C 2.58 -0.831 2.608 -0.466 2.103 -0.048 L 1.48 0.467 C 1.029 0.84 0.701 0.848 0.404 0.488 Z M 6.329 -3.374 C 6.121 -3.295 5.991 -3.249 5.477 -2.824 L 4.484 -2.003 C 3.898 -1.517 3.513 -1.541 3.132 -2.001 L 2.843 -2.352 L 5.414 -4.479 L 4.576 -5.493 L -1.741 -0.267 L -0.476 1.262 C 0.393 2.313 1.245 2.368 2.22 1.562 L 2.716 1.152 C 3.366 0.614 3.615 0.052 3.449 -0.572 C 4.075 -0.237 4.691 -0.467 5.35 -1.012 L 6.325 -1.818 C 6.631 -2.072 6.865 -2.249 7.183 -2.342 Z" fill="#231f20" fill-opacity="1"/></g></g><g clip-path="url(#clippath44)"><g transform="translate(441.2436 743.2727)"><path d="M 0 0 L 4.42 3.859 L 5.555 2.559 L 4.06 1.253 L 10.869 -6.547 L 9.439 -7.795 L 2.63 0.005 L 1.135 -1.3 Z" fill="#d1223e" fill-opacity="1"/></g></g><g clip-path="url(#clippath44)"><g transform="translate(456.0945 739.8194)"><path d="M 0 0 L -1.567 -1.072 L -8.39 8.898 L -6.823 9.97 L -3.899 5.697 L -2.118 6.915 L -5.043 11.188 L -3.447 12.28 L 3.376 2.31 L 1.78 1.218 L -1.144 5.491 L -2.924 4.273 Z" fill="#d1223e" fill-opacity="1"/></g></g><g clip-path="url(#clippath44)"><g transform="translate(459.3901 750.0573)"><path d="M 0 0 L 2.308 1.21 L 3.11 -0.319 L 0.801 -1.529 L 2.444 -4.663 L 5.348 -3.141 L 6.149 -4.669 L 1.563 -7.073 L -4.045 3.629 L 0.541 6.032 L 1.342 4.503 L -1.562 2.981 Z" fill="#d1223e" fill-opacity="1"/></g></g><g clip-path="url(#clippath44)"><g transform="translate(470.3116 751.5917)"><path d="M 0 0 L -4.818 6.913 L -2.934 7.537 L 0.174 2.767 L -0.181 8.449 L 1.539 9.019 L 1.802 0.597 L 3.062 -3.204 L 1.259 -3.801 Z" fill="#d1223e" fill-opacity="1"/></g></g><g clip-path="url(#clippath44)"><g transform="translate(477.6127 752.4137)"><path d="M 0 0 C 0.18 -0.844 0.619 -1.086 1.21 -0.96 C 1.801 -0.834 2.104 -0.434 1.924 0.41 L 0.566 6.79 C 0.386 7.634 -0.054 7.876 -0.645 7.75 C -1.235 7.624 -1.538 7.225 -1.359 6.381 Z M -3.19 5.867 C -3.593 7.758 -2.827 9.05 -1.004 9.438 C 0.819 9.826 2.045 8.958 2.448 7.068 L 3.756 0.923 C 4.159 -0.967 3.393 -2.26 1.57 -2.648 C -0.253 -3.036 -1.479 -2.168 -1.882 -0.277 Z" fill="#d1223e" fill-opacity="1"/></g></g><g clip-path="url(#clippath44)"><g transform="translate(484.1764 762.9345)"><path d="M 0 0 L 0.898 -9.277 C 0.981 -10.136 1.389 -10.408 1.99 -10.35 C 2.591 -10.292 2.939 -9.946 2.856 -9.087 L 1.958 0.19 L 3.745 0.362 L 4.631 -8.794 C 4.817 -10.718 3.962 -11.911 2.106 -12.09 C 0.251 -12.27 -0.818 -11.263 -1.004 -9.339 L -1.89 -0.183 Z" fill="#d1223e" fill-opacity="1"/></g></g><g clip-path="url(#clippath44)"><g transform="translate(492.5813 760.0574)"><path d="M 0 0 L -0.175 -8.75 L -1.884 -8.715 L -1.642 3.365 L 0.74 3.317 L 2.545 -3.953 L 2.69 3.278 L 4.381 3.244 L 4.139 -8.836 L 2.189 -8.797 Z" fill="#d1223e" fill-opacity="1"/></g></g><g clip-path="url(#clippath44)"><g transform="translate(502.1342 757.3613)"><path d="M 0 0 L 2.634 -0.355 L 2.123 -4.152 C 1.865 -6.068 0.76 -7.034 -1.088 -6.785 C -2.935 -6.537 -3.746 -5.313 -3.488 -3.397 L -2.649 2.83 C -2.391 4.746 -1.286 5.712 0.562 5.463 C 2.409 5.214 3.219 3.99 2.961 2.074 L 2.805 0.911 L 1.026 1.151 L 1.199 2.434 C 1.314 3.289 0.981 3.665 0.383 3.745 C -0.216 3.826 -0.636 3.552 -0.751 2.696 L -1.622 -3.77 C -1.738 -4.625 -1.403 -4.984 -0.804 -5.065 C -0.205 -5.145 0.213 -4.888 0.328 -4.033 L 0.625 -1.826 L -0.23 -1.711 Z" fill="#d1223e" fill-opacity="1"/></g></g><g clip-path="url(#clippath44)"><g transform="translate(508.9295 756.3653)"><path d="M 0 0 L 2.533 -0.615 L 2.125 -2.293 L -0.407 -1.677 L -1.243 -5.116 L 1.944 -5.89 L 1.536 -7.567 L -3.496 -6.344 L -0.642 5.396 L 4.389 4.174 L 3.982 2.496 L 0.795 3.271 Z" fill="#d1223e" fill-opacity="1"/></g></g><g clip-path="url(#clippath44)"><g transform="translate(517.2358 757.4603)"><path d="M 0 0 L -1.257 -3.492 L -0.559 -3.743 C 0.107 -3.983 0.618 -3.837 0.946 -2.927 L 1.349 -1.807 C 1.642 -0.995 1.494 -0.538 0.861 -0.31 Z M -1.559 -10.446 C -1.552 -10.118 -1.552 -9.916 -1.219 -8.991 L -0.576 -7.204 C -0.196 -6.148 -0.413 -5.63 -1.225 -5.338 L -1.842 -5.116 L -3.508 -9.744 L -5.295 -9.101 L -1.202 2.267 L 1.494 1.297 C 3.346 0.63 3.832 -0.517 3.2 -2.271 L 2.878 -3.164 C 2.457 -4.334 1.809 -4.963 0.879 -5.049 C 1.638 -5.745 1.62 -6.711 1.193 -7.896 L 0.562 -9.65 C 0.363 -10.202 0.233 -10.614 0.26 -11.101 Z" fill="#d1223e" fill-opacity="1"/></g></g><g clip-path="url(#clippath44)"><g transform="translate(525.1082 746.8987)"><path d="M 0 0 L 1.597 -0.892 L 3.779 4.888 Z M 1.913 -5.458 L 0.241 -4.523 L 1.023 -2.45 L -1.011 -1.314 L -2.366 -3.067 L -3.888 -2.217 L 3.693 7.387 L 6.118 6.032 Z" fill="#d1223e" fill-opacity="1"/></g></g><g clip-path="url(#clippath44)"><g transform="translate(535.2701 743.4567)"><path d="M 0 0 L -4.427 -4.725 L -6.508 -3.156 L -0.31 7.302 L 1.165 6.19 L -3.757 -2.031 L 2.709 5.027 L 4.17 3.925 L -0.849 -4.31 L 5.714 2.761 L 7.036 1.764 L -1.312 -7.073 L -3.324 -5.557 Z" fill="#d1223e" fill-opacity="1"/></g></g><g clip-path="url(#clippath44)"><g transform="translate(539.682 736.2919)"><path d="M 0 0 L 1.301 -1.286 L 4.946 3.702 Z M 0.387 -5.77 L -0.975 -4.423 L 0.333 -2.634 L -1.324 -0.996 L -3.098 -2.324 L -4.338 -1.099 L 5.53 6.133 L 7.505 4.18 Z" fill="#d1223e" fill-opacity="1"/></g></g><g clip-path="url(#clippath44)"><g transform="translate(550.138 734.5765)"><path d="M 0 0 L -2.9 -2.315 L -2.437 -2.896 C -1.996 -3.449 -1.484 -3.592 -0.728 -2.989 L 0.203 -2.246 C 0.877 -1.707 0.991 -1.241 0.571 -0.715 Z M -6.802 -8.08 C -6.624 -7.806 -6.518 -7.633 -5.75 -7.019 L -4.266 -5.835 C -3.389 -5.135 -3.302 -4.58 -3.84 -3.905 L -4.25 -3.392 L -8.094 -6.461 L -9.279 -4.978 L 0.164 2.561 L 1.952 0.321 C 3.18 -1.217 2.993 -2.448 1.535 -3.611 L 0.794 -4.204 C -0.178 -4.979 -1.06 -5.175 -1.898 -4.761 C -1.615 -5.751 -2.136 -6.565 -3.121 -7.351 L -4.578 -8.514 C -5.037 -8.88 -5.364 -9.163 -5.596 -9.591 Z" fill="#d1223e" fill-opacity="1"/></g></g><g clip-path="url(#clippath44)"><g transform="translate(555.1198 727.6975)"><path d="M 0 0 L -7.337 -4.543 L -6.774 -5.453 C -6.456 -5.967 -6.001 -6.111 -5.267 -5.657 L 0.074 -2.35 C 0.808 -1.895 0.881 -1.423 0.563 -0.91 Z M 0.468 2.523 L 2.049 -0.031 C 3.049 -1.645 2.644 -2.992 1 -4.009 L -4.194 -7.226 C -5.838 -8.243 -7.224 -8.005 -8.224 -6.391 L -9.804 -3.837 Z" fill="#d1223e" fill-opacity="1"/></g></g><g clip-path="url(#clippath44)"><g transform="translate(561.2505 720.3879)"><path d="M 0 0 C 0.782 -1.673 0.183 -3.001 -1.569 -3.819 L -1.913 -3.98 L -2.673 -2.353 L -2.219 -2.142 C -1.437 -1.776 -1.286 -1.325 -1.542 -0.777 C -1.798 -0.23 -2.241 -0.056 -3.023 -0.421 C -5.275 -1.473 -4.127 -5.032 -7.254 -6.493 C -9.006 -7.311 -10.416 -6.903 -11.205 -5.214 C -11.994 -3.525 -11.402 -2.182 -9.65 -1.364 L -8.977 -1.05 L -8.218 -2.676 L -9 -3.041 C -9.782 -3.406 -9.903 -3.882 -9.647 -4.429 C -9.391 -4.977 -8.949 -5.189 -8.167 -4.824 C -5.915 -3.772 -7.063 -0.213 -3.935 1.248 C -2.184 2.066 -0.781 1.673 0 0" fill="#d1223e" fill-opacity="1"/></g></g><g clip-path="url(#clippath44)"><g transform="translate(466.8382 697.6661)"><path d="M 0 0 L -3.092 -9.38 L -6.979 -8.546 L -5.117 9.904 L -2.362 9.313 L -3.895 -5.223 L 0.521 8.694 L 3.249 8.108 L 1.591 -6.508 L 6.132 7.489 L 8.604 6.958 L 2.726 -10.63 L -1.032 -9.823 Z" fill="#231f20" fill-opacity="1"/></g></g><g clip-path="url(#clippath44)"><g transform="translate(477.8611 704.1045)"><path d="M 0 0 L 2.832 -0.608 L -1.038 -18.627 L -3.87 -18.019 Z" fill="#231f20" fill-opacity="1"/></g></g><g clip-path="url(#clippath44)"><g transform="translate(485.2113 697.3287)"><path d="M 0 0 L -2.803 -13.051 L -5.351 -12.504 L -1.481 5.515 L 2.071 4.753 L 2.663 -6.658 L 4.98 4.128 L 7.502 3.586 L 3.633 -14.433 L 0.724 -13.808 Z" fill="#231f20" fill-opacity="1"/></g></g><g clip-path="url(#clippath44)"><g transform="translate(497.2068 694.7526)"><path d="M 0 0 L -2.803 -13.051 L -5.351 -12.504 L -1.482 5.516 L 2.071 4.753 L 2.663 -6.658 L 4.979 4.128 L 7.502 3.586 L 3.632 -14.433 L 0.724 -13.808 Z" fill="#231f20" fill-opacity="1"/></g></g><g clip-path="url(#clippath44)"><g transform="translate(508.9471 689.4846)"><path d="M 0 0 L 3.887 -0.835 L 3.334 -3.409 L -0.553 -2.574 L -1.686 -7.851 L 3.205 -8.901 L 2.652 -11.476 L -5.071 -9.817 L -1.201 8.202 L 6.522 6.543 L 5.969 3.969 L 1.078 5.02 Z" fill="#231f20" fill-opacity="1"/></g></g><g clip-path="url(#clippath44)"><g transform="translate(520.5016 692.2543)"><path d="M 0 0 L -1.189 -5.534 L -0.082 -5.772 C 0.974 -5.999 1.717 -5.674 2.026 -4.232 L 2.408 -2.456 C 2.684 -1.169 2.368 -0.509 1.364 -0.293 Z M -0.228 -16.108 C -0.283 -15.612 -0.325 -15.306 -0.01 -13.839 L 0.598 -11.008 C 0.957 -9.334 0.524 -8.595 -0.763 -8.319 L -1.741 -8.108 L -3.317 -15.445 L -6.149 -14.837 L -2.279 3.182 L 1.994 2.265 C 4.929 1.634 5.897 -0.001 5.3 -2.781 L 4.996 -4.197 C 4.598 -6.05 3.746 -7.133 2.358 -7.454 C 3.646 -8.35 3.817 -9.814 3.413 -11.693 L 2.816 -14.473 C 2.628 -15.348 2.516 -15.997 2.655 -16.727 Z" fill="#231f20" fill-opacity="1"/></g></g><g clip-path="url(#clippath44)"><g transform="translate(483.9974 720.1071)"><path d="M 0 0 C -0.759 0.163 -1.324 -0.146 -1.556 -1.23 L -1.906 -2.856 L -4.159 -2.372 L -3.843 -0.898 C -3.322 1.53 -1.81 2.656 0.53 2.153 C 2.871 1.651 3.787 0.003 3.266 -2.424 C 2.242 -7.192 -2.886 -7.95 -3.422 -10.442 C -3.445 -10.551 -3.468 -10.659 -3.47 -10.772 L 1.038 -11.74 L 0.573 -13.908 L -6.319 -12.427 L -5.919 -10.564 C -4.96 -6.099 -0.077 -6.377 0.863 -1.999 C 1.156 -0.634 0.759 -0.163 0 0" fill="#231f20" fill-opacity="1"/></g></g><g clip-path="url(#clippath44)"><g transform="translate(490.0439 708.6742)"><path d="M 0 0 C -0.233 -1.084 0.156 -1.598 0.914 -1.761 C 1.673 -1.924 2.238 -1.614 2.471 -0.531 L 4.23 7.662 C 4.463 8.745 4.074 9.259 3.316 9.422 C 2.557 9.585 1.992 9.276 1.759 8.192 Z M -0.657 8.552 C -0.136 10.98 1.441 12.092 3.781 11.589 C 6.122 11.087 7.103 9.425 6.581 6.998 L 4.887 -0.891 C 4.366 -3.318 2.789 -4.431 0.449 -3.928 C -1.892 -3.425 -2.873 -1.764 -2.351 0.664 Z" fill="#231f20" fill-opacity="1"/></g></g><g clip-path="url(#clippath44)"><g transform="translate(502.8521 716.0579)"><path d="M 0 0 C -0.759 0.163 -1.324 -0.147 -1.556 -1.23 L -1.905 -2.856 L -4.159 -2.371 L -3.843 -0.898 C -3.322 1.53 -1.81 2.656 0.531 2.153 C 2.871 1.651 3.787 0.003 3.266 -2.424 C 2.242 -7.192 -2.886 -7.95 -3.422 -10.442 C -3.445 -10.551 -3.468 -10.659 -3.47 -10.772 L 1.038 -11.74 L 0.573 -13.907 L -6.319 -12.427 L -5.919 -10.564 C -4.96 -6.099 -0.077 -6.377 0.863 -1.999 C 1.156 -0.634 0.759 -0.163 0 0" fill="#231f20" fill-opacity="1"/></g></g><g clip-path="url(#clippath44)"><g transform="translate(510.2823 714.5529)"><path d="M 0 0 C 1.842 -0.396 2.445 0.405 3.032 1.344 L 4.636 1 L 1.378 -14.171 L -1.006 -13.659 L 1.479 -2.086 L -0.363 -1.69 Z" fill="#231f20" fill-opacity="1"/></g></g></g></svg>